<?xml version="1.0" encoding="UTF-8" standalone="no"?>
<!DOCTYPE svg PUBLIC "-//W3C//DTD SVG 1.1//EN"
 "http://www.w3.org/Graphics/SVG/1.1/DTD/svg11.dtd">
<!-- Generated by graphviz version 2.47.0 (20210316.0004)
 -->
<!-- Title: dependencies Pages: 1 -->
<svg width="856pt" height="284pt"
 viewBox="0.00 0.00 856.00 284.00" xmlns="http://www.w3.org/2000/svg" xmlns:xlink="http://www.w3.org/1999/xlink">
<g id="graph0" class="graph" transform="scale(1 1) rotate(0) translate(4 280)">
<title>dependencies</title>
<polygon fill="white" stroke="transparent" points="-4,4 -4,-280 852,-280 852,4 -4,4"/>
<text text-anchor="start" x="403.01" y="-42.4" font-family="Times-12" font-weight="bold" font-size="14.00">Legend</text>
<polygon fill="#ffffb3" stroke="transparent" points="190,-10 190,-30 210,-30 210,-10 190,-10"/>
<text text-anchor="start" x="213.63" y="-15.4" font-family="Times-12" font-size="14.00"> &#160;Declarations</text>
<polygon fill="#8dd3c7" stroke="transparent" points="303,-10 303,-30 323,-30 323,-10 303,-10"/>
<text text-anchor="start" x="326.73" y="-15.4" font-family="Times-12" font-size="14.00"> &#160;Module</text>
<polygon fill="#80b1d3" stroke="transparent" points="389,-10 389,-30 409,-30 409,-10 389,-10"/>
<text text-anchor="start" x="412.78" y="-15.4" font-family="Times-12" font-size="14.00"> &#160;Bootstrap</text>
<polygon fill="#fdb462" stroke="transparent" points="486,-10 486,-30 506,-30 506,-10 486,-10"/>
<text text-anchor="start" x="509.67" y="-15.4" font-family="Times-12" font-size="14.00"> &#160;Providers</text>
<polygon fill="#fb8072" stroke="transparent" points="582,-10 582,-30 602,-30 602,-10 582,-10"/>
<text text-anchor="start" x="605.73" y="-15.4" font-family="Times-12" font-size="14.00"> &#160;Exports</text>
<g id="clust1" class="cluster">
<title>cluster_AppModule</title>
<polygon fill="none" stroke="black" stroke-dasharray="1,5" points="8,-70 8,-268 840,-268 840,-70 8,-70"/>
</g>
<g id="clust10" class="cluster">
<title>cluster_AppModule_bootstrap</title>
<polygon fill="none" stroke="black" points="339,-208 339,-260 463,-260 463,-208 339,-208"/>
</g>
<g id="clust8" class="cluster">
<title>cluster_AppModule_imports</title>
<polygon fill="none" stroke="black" points="688,-78 688,-130 832,-130 832,-78 688,-78"/>
</g>
<g id="clust2" class="cluster">
<title>cluster_AppModule_declarations</title>
<polygon fill="none" stroke="black" points="16,-78 16,-130 680,-130 680,-78 16,-78"/>
</g>
<!-- AppComponent -->
<g id="node1" class="node">
<title>AppComponent</title>
<polygon fill="#ffffb3" stroke="black" points="671.94,-122 566.06,-122 566.06,-86 671.94,-86 671.94,-122"/>
<text text-anchor="middle" x="619" y="-99.8" font-family="Times,serif" font-size="14.00">AppComponent</text>
</g>
<!-- AppModule -->
<g id="node6" class="node">
<title>AppModule</title>
<polygon fill="#8dd3c7" stroke="black" points="442.66,-187 439.66,-191 418.66,-191 415.66,-187 359.34,-187 359.34,-151 442.66,-151 442.66,-187"/>
<text text-anchor="middle" x="401" y="-164.8" font-family="Times,serif" font-size="14.00">AppModule</text>
</g>
<!-- AppComponent&#45;&gt;AppModule -->
<g id="edge1" class="edge">
<title>AppComponent&#45;&gt;AppModule</title>
<path fill="none" stroke="black" d="M619,-122.02C619,-139.37 619,-163 619,-163 619,-163 452.77,-163 452.77,-163"/>
<polygon fill="black" stroke="black" points="452.77,-159.5 442.77,-163 452.77,-166.5 452.77,-159.5"/>
</g>
<!-- CarouselComponent -->
<g id="node2" class="node">
<title>CarouselComponent</title>
<polygon fill="#ffffb3" stroke="black" points="548.59,-122 417.41,-122 417.41,-86 548.59,-86 548.59,-122"/>
<text text-anchor="middle" x="483" y="-99.8" font-family="Times,serif" font-size="14.00">CarouselComponent</text>
</g>
<!-- CarouselComponent&#45;&gt;AppModule -->
<g id="edge2" class="edge">
<title>CarouselComponent&#45;&gt;AppModule</title>
<path fill="none" stroke="black" d="M430.14,-122.11C430.14,-122.11 430.14,-140.99 430.14,-140.99"/>
<polygon fill="black" stroke="black" points="426.64,-140.99 430.14,-150.99 433.64,-140.99 426.64,-140.99"/>
</g>
<!-- ModalServiceComponent -->
<g id="node3" class="node">
<title>ModalServiceComponent</title>
<polygon fill="#ffffb3" stroke="black" points="399.86,-122 240.14,-122 240.14,-86 399.86,-86 399.86,-122"/>
<text text-anchor="middle" x="320" y="-99.8" font-family="Times,serif" font-size="14.00">ModalServiceComponent</text>
</g>
<!-- ModalServiceComponent&#45;&gt;AppModule -->
<g id="edge3" class="edge">
<title>ModalServiceComponent&#45;&gt;AppModule</title>
<path fill="none" stroke="black" d="M379.55,-122.11C379.55,-122.11 379.55,-140.99 379.55,-140.99"/>
<polygon fill="black" stroke="black" points="376.05,-140.99 379.55,-150.99 383.05,-140.99 376.05,-140.99"/>
</g>
<!-- SafePipe -->
<g id="node4" class="node">
<title>SafePipe</title>
<polygon fill="#ffffb3" stroke="black" points="221.76,-122 156.24,-122 156.24,-86 221.76,-86 221.76,-122"/>
<text text-anchor="middle" x="189" y="-99.8" font-family="Times,serif" font-size="14.00">SafePipe</text>
</g>
<!-- SafePipe&#45;&gt;AppModule -->
<g id="edge4" class="edge">
<title>SafePipe&#45;&gt;AppModule</title>
<path fill="none" stroke="black" d="M189,-122.02C189,-139.37 189,-163 189,-163 189,-163 349.12,-163 349.12,-163"/>
<polygon fill="black" stroke="black" points="349.12,-166.5 359.12,-163 349.12,-159.5 349.12,-166.5"/>
</g>
<!-- ScrollComponent -->
<g id="node5" class="node">
<title>ScrollComponent</title>
<polygon fill="#ffffb3" stroke="black" points="138.27,-122 23.73,-122 23.73,-86 138.27,-86 138.27,-122"/>
<text text-anchor="middle" x="81" y="-99.8" font-family="Times,serif" font-size="14.00">ScrollComponent</text>
</g>
<!-- ScrollComponent&#45;&gt;AppModule -->
<g id="edge5" class="edge">
<title>ScrollComponent&#45;&gt;AppModule</title>
<path fill="none" stroke="black" d="M81,-122.28C81,-143.32 81,-175 81,-175 81,-175 349.17,-175 349.17,-175"/>
<polygon fill="black" stroke="black" points="349.17,-178.5 359.17,-175 349.17,-171.5 349.17,-178.5"/>
</g>
<!-- AppComponent  -->
<g id="node8" class="node">
<title>AppComponent </title>
<polygon fill="#80b1d3" stroke="black" points="455.44,-252 346.56,-252 346.56,-216 455.44,-216 455.44,-252"/>
<text text-anchor="middle" x="401" y="-229.8" font-family="Times,serif" font-size="14.00">AppComponent </text>
</g>
<!-- AppModule&#45;&gt;AppComponent  -->
<g id="edge7" class="edge">
<title>AppModule&#45;&gt;AppComponent </title>
<path fill="none" stroke="black" stroke-dasharray="1,5" d="M401,-187.11C401,-187.11 401,-205.99 401,-205.99"/>
<polygon fill="black" stroke="black" points="397.5,-205.99 401,-215.99 404.5,-205.99 397.5,-205.99"/>
</g>
<!-- AppRoutingModule -->
<g id="node7" class="node">
<title>AppRoutingModule</title>
<polygon fill="#8dd3c7" stroke="black" points="824.27,-122 821.27,-126 800.27,-126 797.27,-122 695.73,-122 695.73,-86 824.27,-86 824.27,-122"/>
<text text-anchor="middle" x="760" y="-99.8" font-family="Times,serif" font-size="14.00">AppRoutingModule</text>
</g>
<!-- AppRoutingModule&#45;&gt;AppModule -->
<g id="edge6" class="edge">
<title>AppRoutingModule&#45;&gt;AppModule</title>
<path fill="none" stroke="black" d="M760,-122.28C760,-143.32 760,-175 760,-175 760,-175 452.88,-175 452.88,-175"/>
<polygon fill="black" stroke="black" points="452.88,-171.5 442.88,-175 452.88,-178.5 452.88,-171.5"/>
</g>
</g>
</svg>
