<?xml version="1.0" encoding="UTF-8"?>
<svg version="1.1" viewBox="0 0 1600 896" width="826" height="463" xmlns="http://www.w3.org/2000/svg">
<path transform="translate(0)" d="m0 0h1600v896h-1600z" fill="#EFD5DF"/>
<path transform="translate(31,536)" d="m0 0h3l-1 11-2 17h-4l-1-6-1 7-2 2v12l3 1 3 30h1v-13l-1-17h2l4 34 1 11 1-1 1-8 5-3 5-1h10l17 4 13 4 5 1h25l18-3 27-8h3l3-3 4 1-5 6-2 4v5l8 5 8 2h16l11-4 10-7 2-3v-22l9-2 1 4v2h-5v11h2l4 7 2 2 2-5 1 2 9 2-1-11 2 4 3 14 3-3 1-5 2 2 2 4 2 1-1-12 2 1 3 8 3 3v3h4l-3-24v-7h2l2 13 4 14 2 2 4-2 2 5-3 2v5l1 1v18l-3 7-3 5h-2l-2 5-5 5-9 2-10 8v14l3 1v2l-3 3 5 10 3 11v9l-2 9h-3l2-10v-8l-1-2-3 5-4-1-5-6-4-5-3-3-6-2h-11l-5 3h-2v2l-5 5-2 6v9l3 6 3 4-4-2-5-5 3 5 6 7-2 5-5-2-9-9-3-8-4-10v-9h-2v-2l-12-3h-8l-16 3-13 5-3 1v2h-2l-2 4-4 6 2 1 1-2 4 2-2 11-5 2-3-9-3-1-5-7v-3h-5l2-4-2-1h-3l-1-3 2-4h-2l-1-2-7 6v-3l3-1 2-5 1-2h-2l-1 3-5 2-1 2-4-2h-5v-2l-10 2v-3l-6 3-2-2 4-3-8 4h-3l2-1-1-2-3 1 2-5h-2l-6 4-2-1 4-5 1-2-7 4 1-4-8 4 5-7-4 1-2-1 5-4-2-2 3-4-4 1-3 1 1-3h2l1-3h-4l2-5 1-3-3-2 3-1v-4l-8-1-3-5-4-15-4-33-2-31v-36l3-10 2-3z" fill="#DE8DA9"/>
<path transform="translate(423,575)" d="m0 0 1 3-7 9-12 20-9 16-12 23-10 24-11 33-6 22-1 12-2 6-4 23v8l5-26 6-30 7-26 2-2-1 8-7 29-4 24-5 25-3 10 4-3h5l4 1 4-2h3v-2l3-1 4 2 1-13 8-6 11-7 4 1-6 3 4 3v2l32-19 21-12 27-15 19-12 20-14 12-9 10-8 13-11 11-9 14-12 8-6 11-11 2 1-8 8 3 6-6-1-2-1-1 5 3 6 4 5 1 5-4 7 1 3v7l-5 7h-2l-2 4-4 2-2 4-9 7h-2l-1 3-13 10-6 5h-2v2h-2v2h-2v2h-2l-2 5-6 4-13 13-10 8-18 12-9 4-22 10-13 5-12 5-11 6-11 8-6 4-5 4-8 10-3 5h-2l-2 4-8 9-8 10-7 9-6 8h-2l-2 5-4 6-5 5-6 11-1 1h-89l6-12 15-24 17-28 8-13 11-19 1-3h2l2-5 13-21 13-23 13-29 8-24 6-21 5-12 2-4 1 3-1 5 6-13 3-7 10-20 4-4-4 12 11-20 12-19 13-19z" fill="#CAADBC"/>
<path transform="translate(31,536)" d="m0 0h3l-1 11-2 17h-4l-1-6-1 7-2 2v12l3 1 3 30h1v-13l-1-17h2l4 34 1 11 1 1 2 19 5 23v3l2-1 16-2 5-2v-3l-4-2-1-4h2l2-4 12 1 3 2-1 4h-2v2h8l18-3 11-1 3 1h12l34-3 7-1 34-2 22-1v2l6 3 5-2 4-2 2-4 10-6 9-2 6 2 3 5v7l-2 6-5-3-5-1 1 2 5 1 1 4-1 2-4-1-3-1 2 6-4-2-3-6-10 2-9 11-1 6 4 9-1 6 2 3-5-1-7-3h-13l-13 4-8 6h-6l-6-2-6 1h-12l-6 1-1 2-9 1-4 1-12 1-11 5h-2l-1 3-4 3h-2v2l-5-2v3h-2l-1-3 2-4h-2l-1-2-7 6v-3l3-1 2-5 1-2h-2l-1 3-5 2-1 2-4-2h-5v-2l-10 2v-3l-6 3-2-2 4-3-8 4h-3l2-1-1-2-3 1 2-5h-2l-6 4-2-1 4-5 1-2-7 4 1-4-8 4 5-7-4 1-2-1 5-4-2-2 3-4-4 1-3 1 1-3h2l1-3h-4l2-5 1-3-3-2 3-1v-4l-8-1-3-5-4-15-4-33-2-31v-36l3-10 2-3z" fill="#BF7A96"/>
<path transform="translate(238,377)" d="m0 0 9 1 4 3v3l3 1 4-1-1 10 2 16-4 4-2 5 2 4-5 6h-2v2l-9 6-19 10-12 5-15 6-14 5-26 6-6 2-19 1-2-1v-3l-11-5-8-3-7-5-5-8-1-5-3-4-1-6-5-2-8-7-6-9-7-15-2-8 4 1 1 3 5 2v2l5 1h33l11-1 25-5 22-5 38-8z" fill="#DF8DA9"/>
<path transform="translate(423,575)" d="m0 0 1 3-7 9-12 20-9 16-12 23-10 24-11 33-6 22-1 12-2 6-4 23v8l5-26 6-30 7-26 2-2-1 8-7 29-4 24-5 25-3 10 4-3h5l4 1 4-2h3v-2l3-1 4 2 1-13 8-6 11-7 4 1-6 3 4 3v2l32-19 21-12 27-15 19-12 20-14 12-9 10-8 13-11 11-9 4-2-6 7-11 9-9 8-17 13-12 9-15 10-19 12-12 7-12 6-27 16-18 12-7 9-7 11-9 12-12 14-11 13-12 15-2 2-9 11-12 12-1-2v-6l8-24v-2l-5 12-6 9-6 1-8-2-4-2h-11l-8 4-5 8-1 3v8l6 10 4 3 7 2-1 5-3 4h-2v4h-48l6-12 15-24 17-28 8-13 11-19 1-3h2l2-5 13-21 13-23 13-29 8-24 6-21 5-12 2-4 1 3-1 5 6-13 3-7 10-20 4-4-4 12 11-20 12-19 13-19z" fill="#BB94A7"/>
<path transform="translate(209,20)" d="m0 0 2 3 6 11-1 2-7-11v-2l-5 2 3 5 2 7 9 10 14 20 2 1-2-5-2-6 4 4 7 11 2 4 4 2 1 4-5 2 7-1 3 4 2 4 3 5v3h-3v2l5-1 1 3h2l3 5v4h-2v2l4-1 1 3 4 4 2 3v3h2v3l2 1v2l-4 1v2l6-1 1 3h-3l-1 4 7-1-1 2-9 2v2l12-2-1 4h3l-1 4h5v4l3 1 4 8-1 1 3 1-1 3 3 1v3h3v2l-13 4h-2v2l13-3h4v2l-13 3-2 1 17-2-1 5 4 1-12 3-3 2 10-1 8-1-1 2-15 4v1l18-3v2l-14 4-3 1 5 10v2l3-2 10-2 4 1-4 2h-4v2l5 1-1 2h-2v2h12l-1 2-10 3h-4l1 2 16-4h4v2l-2 1 4 2-4 2h-3v2l9-1-1 3-4 2h8v2l-16 5h-3l2 2 9-3 7-2 4 1-2 1 4 1-1 5h4v2l-15 6h-2v2l13-5 6-1v2l-14 5h-2v2l14-4h5l-1 2-16 6 9-2 10-2v2l-10 3h-3v2l15-3-1 3-10 3-2 1 16-2v2l-11 3h7l6-1-1 3-6 2-4 1v-2l-9 3 6 10 2 5 1-5 15-4h4v2l4 4v2l-4 1h5v3l-15 3h-4l8 14 3 7 6 7 12 17 11 15 5 7h6l3-3-8 2-2-5h-2v-2l5-2h3v-2l-7 2-4-1 9-2v-3l-11 3v-2l9-2-2-3-6 2-4-1 8-3h2v-2l-13 3v-2l11-3v-2l-13 4-1-2 11-4 1-2-10 4-3 1v-3l10-4-7 1-6 1v-2l11-4v-2l-9 3-4 1v-3l13-5 10 19 10 20v5l-6 3-5-1-11-13-9-12-14-18-13-18-12-17-14-20-12-18-10-17-14-20-8-14-8-13-10-16-4-7-11-17-7-11-10-16-14-22-13-21-13-20-12-20v-4l11-9 5-4h2v-2zm-7 6m-2 1-3 4 3 1-1 4-1 1v5l8 2-1 6 5 2 1 5h2l2 5h2l2 4 5 8 13 22 3 5 8 13 6 9 1-2-12-22-7-13-2-9-6-9-8-11-7-8-3-7-9-2 1-4 4-3-2-4z" fill="#BB92A6"/>
<path transform="translate(186,215)" d="m0 0 3 4 3 10-1 5 4 1-3 2-1 3 6-1 1-3 2 2v12l-4 4-12 3-5 3h-3v2l-6 2-4 1-11 3h-4v2l-5 1v2h-2l-2 4-10 7h-6l-2 4h8v2h-9v2h2l1 2 7-1-3 6 3-2 1-7h1v9l-7 3h-6l-9 7-11 11-7 8-6 9-2 4-27 13-6 5v8l3 12 2 3 2 9-1 6-6 3-9 2-15 8-8 6-5 5h-2l-2 4-5 5-3 1-1 3-4 2v-18l3-5 6-2-1-2h-2v-2l6-1v-2h-2v-2h6v-2h2v-2h2l2-4 4-4 1-3 3-2v-4l4 1 3-3 1-3-6 1-7-2v-2h6l3-2-1-5h5l1-2-4-2 2-1 8 4 3-1-7-4v-3l2-1 2-4h3l-1-2 3-1 3 2v-2l-3-1 1-5 7-2 4-5h-3l1-3 10-5h3l2-6h4l11-9 8-7 5-6h6l6-5 6-7 3-5 8-7 1-6 5-2 1-2-2-2 5-4 1-3 4-4 1-5 6-2 6-7 4-2v2l3-3 1-4 2-1v2h4l2-5 4-2v-2l-2-1 4-2z" fill="#DE8DA9"/>
<path transform="translate(691,780)" d="m0 0 6 1 11 8 13 13 6 13 4 21v12l-4 17h-2l-1 7 4 4 2 12-1 5-1 3h-30l6-8 7-10 2-5v-21l-4-15-6-11-7-8-14-8-15-4h-17l-11 4-11 8-9 12-4 11v18l6 15v2l2-1-5-12-1-11 2 4 5 15 3 6 7 9 12 9v1h-10l-11-10-3-3 4 7v3l-8-10-6-10-4-12-1-5v-13h-2l2-14 5-18 3-5 1 2-3 8 7-11 9-8 14-8 11-4 5-1h22l13 4 11 6 10 9 6 9v3l2-1-6-12-10-11-9-6-7-4z" fill="#EAD0DA"/>
<path transform="translate(31,536)" d="m0 0h3l-1 11-2 17h-4l-1-6-1 7-2 2v12l3 1 3 30h1v-13l-1-17h2l4 34 1 11 1 1 2 19 5 23v3l2-1 19-2h7l19-3h7l1 6 3 1v2h2v2l4 1v2l4 2 9 6 2 6-10 8-6 4-3 5-4-1-2 4-5 2-1 2-4-2h-5v-2l-10 2v-3l-6 3-2-2 4-3-8 4h-3l2-1-1-2-3 1 2-5h-2l-6 4-2-1 4-5 1-2-7 4 1-4-8 4 5-7-4 1-2-1 5-4-2-2 3-4-4 1-3 1 1-3h2l1-3h-4l2-5 1-3-3-2 3-1v-4l-8-1-3-5-4-15-4-33-2-31v-36l3-10 2-3z" fill="#BD7A95"/>
<path transform="translate(597,626)" d="m0 0 2 1-8 8 3 6-6-1-2-1-1 5 3 6 4 5 1 5-4 7 1 3v7l-5 7h-2l-2 4-4 2-2 4-9 7h-2l-1 3-13 10-6 5h-2v2h-2v2h-2v2l-10 3-5 3h-4l-7 8-10 10-4 3h-3l-1 3h-3v2l-16 8-15 7-10 4-10 5-10 2-2-1 1-6 8-7 13-7 4-3 7-3 3-3 21-10 9-5-1-2 6-7 14-10 7-6 6-9-6 2 1-4h2l1-4-6 4-15 12-5 2 5-5 10-8 5-5 10-8 11-9 12-11 11-9 9-8-3-1 11-10 7-5 5-5z" fill="#E19AB5"/>
<path transform="translate(230,593)" d="m0 0 1 3v2h-5v11h2l4 7 2 2 2-5 1 2 9 2-1-11 2 4 3 14 3-3 1-5 2 2 2 4 2 1-1-12 2 1 3 8 3 3v3h4l-3-24v-7h2l2 13 4 14 2 2 4-2 2 5-3 2v5l1 1v18l-3 7-3 5h-2l-2 5-5 5-9 2-10 8v14l3 1v2l-3 3 5 10 3 11v9l-2 9h-3l2-10v-8l-1-2-3 5-4-1-5-6-4-5-3-3-6-2h-11l-5 3h-2v2l-5 5-2 6v9l3 6 3 4-4-2-5-5 3 5 6 7-2 5-5-2-9-9-3-8-4-10v-9h-2v-2l-12-3h-8l-16 3-13 5-3 1v2h-2l-2 4-4 6 2 1 1-2 4 2-2 11-5 2-3-9-3-1-5-7v-3h-5l2-4-2-1 1-3 3 2v-2l6-4 3-3 11-5 15-1 5-1 12-4h12l3-1 8 1 4 1 4-1 9-6 11-3h13l13 6v-2h2v-8l-1-8 5-5 10-6 9 1 5-6 3-7 3-9-1-8-2-6v-2l-2-1-3-5-9 1-13 1-11 2-6-5-4-9-2-14v-5l3-4z" fill="#E29BB5"/>
<path transform="translate(229,398)" d="m0 0 10 1 4 4-1 8-3 6-5 5-10 6-14 6-13 5-10 4-19 6-13 4-9 3-19 3-13-1-7-4-5-5v-5h-2l2-4 11-5-6 1-7 4-2-1 2-7h2l1-3 2-1h6l1 1 12-1 22-5 38-10 36-12z" fill="#BF7A96"/>
<path transform="translate(463,521)" d="m0 0v3l-4 6v3l11 7 2 2-7 1-10-5h-2l1 3 16 8 4 10v7l-5 12-7 11h-2l-1 4-8 11-10 10-4 1-4-2-7 3h-9l-3 1-2 4-1-2 1-12v-4l-3 3-10 19-8 19-20 56-6 18-1-4 5-20-3 10-6 23-8 42-2 7h-1v-10l5-28 1-1 2-16 9-31 10-28 9-20 14-27 12-20 10-15 2-2 2-6 9-13 12-16 14-19z" fill="#DE8DA9"/>
<path transform="translate(203,26)" d="m0 0h2l2 4 2 7 9 10 14 20 2 1-2-5-2-6 4 4 7 11 2 4 4 2 1 4-5 2 7-1 3 4 2 4 3 5v3h-3v2l5-1 1 3h2l3 5v4h-2v2l4-1 1 3 4 4 2 3v3h2v3l2 1v2l-4 1v2l6-1 1 3h-3l-1 4 7-1-1 2-9 2v2l12-2-1 4h3l-1 4h5v4l3 1 4 8-1 1 3 1v4l-4 2-12 3-2-1 3 7-1 3-6-11-7-11-7-10-1-4h-2v-2h-2v-2l-4-2-7-7-11-16-9-14-12-19-10-16-8-13-6-9-2-4 1-7 2-3v-4l2-1 4 2-1 4-2 6 8 1v3l-1 4 5 2 1 5h2l2 5h2l7 11 15 24 7 12 8 13-6-12-10-18-4-10-3-9-9-12-4-5v-2l-3-1-5-8v-3l-9-1-1-4 5-4-1-3-3-2z" fill="#D4BCC8"/>
<path transform="translate(238,377)" d="m0 0 9 1 4 3v3l3 1 4-1-1 10 2 16-4 4-2 5 2 4-5 6h-2v2l-9 6-19 10-12 5-15 6-14 5-26 6-6 2-19 1-2-1v-3l-11-5-8-3-7-5-5-8-1-5-3-4-1-6-5-2 4-1 3-1 2 2v5l2 2 5 15 3 1 4 4 12 4h16l10-2 17-4 36-12 11-5 16-6 11-7 7-6h2v-2h2l1-5 1-7v-10l1-6-7 2h-4l-3-5-9-1h-12l-14 3-5 2-23 4-27 6-13 3-31 5-18 3-8-1-6-3-2-2-2-6h-3l-2-8 4 1 1 3 5 2v2l5 1h33l11-1 25-5 22-5 38-8z" fill="#E29BB6"/>
<path transform="translate(366,822)" d="m0 0 5 1-1 7-8 16-6 9-22 30-3 6-2 5h-36v-4l4-4 2-5-7-1-6-5-5-9v-8l5-10 5-4 5-2h11l6 3 10 1 5-5 8-19h1l-1 8-7 21v6l1 1 7-8 11-12 2-2 7-6 5-7z" fill="#CAADBC"/>
<path transform="translate(566,653)" d="m0 0 2 1-14 13-11 9-15 12-15 11-15 10-19 12-12 7-12 6-27 16-18 12-7 9-7 11-9 12-12 14-11 13-12 15-2 2-9 11-12 12-1-2v-6l8-24 7-27 9-37 8-43 8-30 2-2-1 8-7 29-4 24-5 25-3 10 4-3h5l4 1 4-2h3v-2l3-1 4 2 1-13 8-6 11-7 4 1-6 3 4 3v2l32-19 21-12 27-15 19-12 20-14 12-9 10-8 13-11 11-9z" fill="#834962"/>
<path transform="translate(37,825)" d="m0 0 1 3-2 1 6 5h4l2 1v-4l4 2 5 6 7 14 1 11-2-1-2 9-1 2h-2l-2 9-2 7-2 5-1 1h-51v-40l5-2h10l12-3 13-5 1-3-3-6-7-6 2-4z" fill="#D5BCC8"/>
<path transform="translate(354)" d="m0 0h13l30 5 16 5 16 7 11 7 14 11 12 12 8 12 3 9 6 13 5 16v6l-2-1-4-16-4-11-7-11-12-16-7-3-15-9-12-5-20-6-21-5-11-5-6-5-2-5-2 1-3 12-2 2-4 2-2-3-1 2v26l3 25 4 27 3 14 3 8-1 4-4-10-2-9-2-1 4 15 2 6-1 4-3-8-4-14-5-26-3-13-3-15-7-27-5-12 1-2 5 10 8 4 2-5 5-11z" fill="#E198B3"/>
<path transform="translate(423,575)" d="m0 0 1 3-7 9-12 20-9 16-12 23-10 24-11 33-8 30-5 16-3 1 2-10v-4l-12 22-8 14-7 11-7 9-4 8-6 9-5 10-8 13-9 14-7 11-10 16-12 18-2 5h-7l6-12 15-24 17-28 8-13 11-19 1-3h2l2-5 13-21 13-23 13-29 8-24 6-21 5-12 2-4 1 3-1 5 6-13 3-7 10-20 4-4-4 12 11-20 12-19 13-19z" fill="#824861"/>
<path transform="translate(571,651)" d="m0 0v3l-10 9-28 24-11 9-5 5-15 12-1 1 12-9 9-7h2l-2 6 4-1v3l-8 10-17 13-18 10-11 6-14 8-18 10-15 8-13 6h-2l2-4 8-8 16-11 13-8-10 5-6 4h-3v2l-8 4-13 9-5 5-11 14h-3l11-16 6-9 7-6 19-12 26-15 22-12 17-11 12-8 11-8 13-10 16-13 10-9z" fill="#EFD5DF"/>
<path transform="translate(103,300)" d="m0 0 6 1-6 7-5 6-7 6-3 1-1 3-5 2v2h-2l-2 4-3 3h-2v2l-2 1v4h-5l-1 7-7 2-4 5h-2l5 23 2 3 2 9-1 6-6 3-9 2-15 8-8 6-5 5h-2l-2 4-5 5-3 1-1 3-4 2v-18l3-5 6-2-1-2h-2v-2l6-1v-2h-2v-2h6v-2h2v-2h2l2-4 4-4 1-3 3-2v-4l4 1 3-3 1-3-6 1-7-2v-2h6l3-2-1-5h5l1-2-4-2 2-1 8 4 3-1-7-4v-3l2-1 2-4h3l-1-2 3-1 3 2v-2l-3-1 1-5 7-2 4-5h-3l1-3 10-5h3l2-6h4l11-9 8-7z" fill="#E3A0B9"/>
<path transform="translate(199,550)" d="m0 0h6v13l-80 8-81 7h-12l-1-1v-11l-2-1 2-1 62-4 66-5z" fill="#FDF7F9"/>
<path transform="translate(408,409)" d="m0 0 2 1-21 12-8 3-3 6-3 1 1 4-5 4h-2v2h-2v2l-8 7h-2l-2 4-4 4h-2v2l-5 3-10 9-6 4-3 3-10 6-14 6-4 1v2h-11l-3-2 1-5 7-9 10-9 11-9 16-8 25-12 17-9 2-5 15-8 16-8z" fill="#DE8DA9"/>
<path transform="translate(203,26)" d="m0 0h2l2 4 2 7 9 10 14 20 2 1-2-5-2-6 4 4 7 11 2 4 4 2 1 4-5 2 7-1 3 4 2 4 3 5v3h-3v2l5-1 1 3h2l3 5v4h-2v2l4-1 1 3 4 4 2 3v3h2v3l2 1v2l-4 1v2l6-1 1 3h-3l-1 4 7-1-1 2-9 2v2l12-2-1 4h3l-1 4h5v3l-16 4-5-5v-3l-3-1-8-14-6-11-3-7-13-25-4-7-2-9-6-9-8-11-1-3-3-1-5-8v-3l-9-1-1-4 5-4-1-3-3-2z" fill="#E8CDD8"/>
<path transform="translate(230,593)" d="m0 0 1 3v2h-5v11h2l4 7 2 2 2-5 1 2 9 2-1-11 2 4 3 14 3-3 1-5 2 2 2 4 2 1-1-12 2 1 3 8 3 3v3h4l-3-24v-7h2l2 13 4 14 2 2 4-2 2 5-3 2v5l1 1v18l-3 7-3 5h-2l-2 5-5 5-9 2-10 8v14l3 1v2l-3 3 5 10 3 11v9l-2 9h-3l2-10v-8l-1-2-3 5-4-1-5-6-4-5-3-3-6-2h-11l-4 1 3-3 4-1h9l7 3 4 4 3 1v2h2v-6l-2-4-5-5-4-5-6-2-17-1 4-2h13l13 6v-2h2v-8l-1-8 5-5 10-6 9 1 5-6 3-7 3-9-1-8-2-6v-2l-2-1-3-5-9 1-13 1-11 2-6-5-4-9-2-14v-5l3-4z" fill="#E19CB6"/>
<path transform="translate(691,780)" d="m0 0 6 1 11 8 13 13 6 13 4 21v12l-4 17h-2l-1 7h-2v4h-2l2-10 3-9v-20l-2-9-7-14v-4l-3-1-2-5-7-7-9-6-11-4-5-1h-18l-12 3-14 7-10 9-5 5-6 9v3l7-10 7-7 14-8 7-3h6l-4 2-9 4-10 6-7 6-1 2 12-9 5-3 2 1-9 6 3 2-9 7-9 12-4 11v18l6 15v2l2-1-5-12-1-11 2 4 5 15 3 6 7 9 12 9v1h-10l-11-10-3-3 4 7v3l-8-10-6-10-4-12-1-5v-13h-2l2-14 5-18 3-5 1 2-3 8 7-11 9-8 14-8 11-4 5-1h22l13 4 11 6 10 9 6 9v3l2-1-6-12-10-11-9-6-7-4z" fill="#B98EA3"/>
<path transform="translate(209,20)" d="m0 0 2 3 6 11-1 2-7-11v-2l-6 3-13 10v8l6 10v2h2l9 16 20 32 11 18 21 33 9 14 8 11 3 8 8 13 7 11 7 8 4 9 10 14 10 16 5 7 4 7 8 11 22 32 9 11 10 14 13 18 8 11h6l3-3-8 2-2-5h-2v-2l5-2h3v-2l-7 2-4-1 9-2v-3l-11 3v-2l9-2-2-3-6 2-4-1 8-3h2v-2l-13 3v-2l11-3v-2l-13 4-1-2 11-4 1-2-10 4-3 1v-3l10-4-7 1-6 1v-2l11-4v-2l-9 3-4 1v-3l13-5 10 19 10 20v5l-6 3-5-1-11-13-9-12-14-18-13-18-12-17-14-20-12-18-10-17-14-20-8-14-8-13-10-16-4-7-11-17-7-11-10-16-14-22-13-21-13-20-12-20v-4l11-9 5-4h2v-2z" fill="#854A63"/>
<path transform="translate(455,542)" d="m0 0 15 7 4 10v7l-5 12-7 11h-2l-1 4-8 11-10 10-4 1-4-2-7 3h-9l-3 1-2 4-1-2 1-12v-4l-2-1 6-8 11 1 6 4h4v-2h2l2-4h2v-2l4-4 8-13 2-6v-7l-5-5-6-3 2-2 2 1-1-6 6-2z" fill="#E29BB6"/>
<path transform="translate(491,142)" d="m0 0 1 4-2 7 3 1-3 9-5 10-1 4h-2l-2 4h-2l-2 4h-2l-1 3-9 3-1 2-3 1-2-1-1 2-17 1-14-4-11-5v-4l-5-1-5-3-5-4-10-7-8-9-1-4-3-1 2-1 9 4 14 7 7 3 16 8-3 1-16-8h-2l15 9 11 4 4 1h19l13-4 9-6-3-1 8-8 3-5h-2l2-6 4-8z" fill="#BA7893"/>
<path transform="translate(91,665)" d="m0 0h7l1 6 3 1v2h2v2l4 1v2l4 2 9 6 2 6-10 8-6 4-3 5-7-2 2-4h-3l-1-4h-3l-2-4-4-1v-6l-9 3-2 3-3-1 7-6 4-1v-2l-9 3v2l-5 3 4-8v-1l-9 4-3-1 4-3 8-3h3v-2l-9 2 2-2 2-1-4-1 8-4-4-2-4 5-3 5-6 4-2-1 3-3h2v-3l-2-2 6-2h-3l-1-2 4-3z" fill="#824861"/>
<path transform="translate(238,377)" d="m0 0 9 1 4 3v3l3 1 4-1-1 10 2 16-3 2-1-5-1-10v-9l-10 3h-4l-3-5-9-1h-12l-14 3-5 2-23 4-27 6-13 3-31 5-18 3-8-1-6-3-2-2-2-6h-3l-2-8 4 1 1 3 5 2v2l5 1h33l11-1 25-5 22-5 38-8z" fill="#E7ABC2"/>
<path transform="translate(364)" d="m0 0 23 3 16 4 10 3 16 7 11 7 14 11 12 12 8 12 3 9 6 13 5 16v6l-2-1-4-16-4-11-7-11-6-8-8-10-3-3-9-5v-2l-6-2-8-4-17-6-28-7-12-6-10-9z" fill="#BA7691"/>
<path transform="translate(366,822)" d="m0 0 5 1-1 7-8 16-6 9-22 30-3 6-2 5h-17l6-11 8-15 4-10 7-8 11-12 2-2 7-6 5-7z" fill="#BB95A8"/>
<path transform="translate(302,171)" d="m0 0h2v3h3v2l-13 4h-2v2l13-3h4v2l-13 3-2 1 17-2-1 5 4 1-12 3-3 2 10-1 8-1-1 2-15 4v1l18-3v2l-14 4-3 1 5 10v2l3-2 10-2 4 1-4 2h-4v2l5 1-1 2h-2v2h12l-1 2-10 3h-4l1 2 16-4h4v2l-2 1 4 2-4 2h-3v2l9-1-1 3-4 2h8v2l-16 5h-3l2 2 9-3 7-2 4 1-2 1 4 1-1 4-14 6h-3l-2-6h-2l1 5-3-3-7-11-5-8-5-12-11-17-9-16-3-11 7-1z" fill="#C19FB0"/>
<path transform="translate(512,730)" d="m0 0 5 1-4 7-11 11-4 3h-3l-1 3h-3v2l-16 8-15 7-10 4-10 5-10 2-2-1 1-6 8-7 13-7 4-3 7-3 3-3 21-10 15-8z" fill="#BB95A8"/>
<path transform="translate(54,726)" d="m0 0 6 1 1 2h3v2l3 1-3 3 1 2v6l2 1 1 8 2 1 1 4 3 1v6l3 1 2 2-1 2h2v2l3 1-2 2 3 5v3l-2 4h2v2h2v3l-10-1-1-3-2 1v-2l-3 1-1-3h-3l-2-5-1-3-2-3v-4l-3-1-4-10-1-2 1-2h-3v-3h-2l-3-9-5-1 1-4 3-1 1-3v-3h2l1-2 2 1z" fill="#D5BDC9"/>
<path transform="translate(571,651)" d="m0 0v3l-10 9-28 24-11 9-5 5-15 12-5 5-15 10-15 9-15 8-8 3-10 6-4 1v2l-8 4-13 9-5 5-11 14h-3l11-16 6-9 7-6 19-12 26-15 22-12 17-11 12-8 11-8 13-10 16-13 10-9z" fill="#E6CAD5"/>
<path transform="translate(26,244)" d="m0 0h6l-3 7-5 2-1 5-2 4-1 6h2l1-2 3 9 2 1-1-4h10l15-3 4-2 2-6-3-7v-3l6 1 5 5 3 8-1 6-6 2-5 5-6 7-4 1h-10l-16 3-2 2-4-4-3-5v-18l6-12 1-4z" fill="#CAADBC"/>
<path transform="translate(190,31)" d="m0 0 3 1-9 7 2 4 8 14 15 24 9 14 10 16-1 2 5 10v3l-4-2-6-8-1-4h-2l-5-9-6-8v-3h-2v-2l-5-2-6-5 4-2 3 1-12-19-9-14-1-3h-3l5 9 12 18 1 5-5-3-12-11-8-11v-4l-6-1-1-6 14-6 6-1z" fill="#D8BFCB"/>
<path transform="translate(506,51)" d="m0 0 6 4 11 7 18 6-6-3 4-1 9 2h14l10-2 8 1 23 9 14 5-3 1-26-8-11 2-4 1-2-4-5 3 25 10 27 13 21 13 17 9 16 3 3 2h-15l-9-3-8-5-11-7-16-10-17-9-21-8-4-1h-20l-14-3-16-7-10-9-8-9z" fill="#E092AE"/>
<path transform="translate(48,843)" d="m0 0 5 5 3 5-1 5 2 6 3 1v6l-2 1v-2l-7 4v1h2l-1 3-6 4-8 6-9 4-5 1-2-4-9-1-8-1-5 2v-5l4-1 6-10h3l1-3 7-4 7 1 4 3h8l6-3h3l2-4v2l2-1-3-11z" fill="#EED3DE"/>
<path transform="translate(190,426)" d="m0 0 4 2-1 3-16 7-26 8-16 4-10 2h-10l-5-2v-4l-2-1 3-3 11-4 23-4 10-2 11-1 8-2z" fill="#824861"/>
<path transform="translate(48,831)" d="m0 0 4 2 5 6 7 14 1 11-2-1-2 9-1 2h-2l-2 9-2 7-2 5-1 1h-51v-7l5-3 8 1 9 2 3 3 11-4 9-6 5-4 3-3-4 2 2-4 4-3 4 1 1-6-4-1-2-7h2l-3-7-10-15v-2l5 2z" fill="#E29BB6"/>
<path transform="translate(655,796)" d="m0 0h19l14 3 13 7 10 9 7 10 5 15v16l-2 7-4 9-8 14-8 10-3-1 7-8 6-9 2-5v-21l-4-15-6-11-7-8-14-8-15-4h-17l-11 4-2-1 10-5h22l12 3 8 3 7-1 9 7 9 13 4 10-1-8-7-12-8-9-13-8-10-3h-29l2-2z" fill="#BB93A6"/>
<path transform="translate(516,223)" d="m0 0v3l-9 16-20 35-7 8-3 3-7 1 2 5-7-3v3l3-1-1 4-6-4-5 2-5 6-1-3 7-9 3-1 1-3 4-4h2l2-4 10-14 8-12 10-12 5-3h2l-1 4-5 10v2l11-18 5-9z" fill="#DE90AB"/>
<path transform="translate(659,775)" d="m0 0h21l10 3 1 3 5 2 8 5 10 9 7 10 3 7-1 3v-2h-2l-5-9-6-7-10-7-11-5-8-2h-22l-14 4-13 7-10 8-1-2-3 1 2-5 5-6 11-8 9-5z" fill="#D6B5C3"/>
<path transform="translate(310,851)" d="m0 0 5 5 1 3v9l-4 8-6 4h-12l-5-3-5-6-1-2v-11l4-6h21l2 1z" fill="#BB92A6"/>
<path transform="translate(186,215)" d="m0 0 3 4 3 10-1 5 4 1-3 2-1 3 6-1 1-3 2 2v12l-4 4-12 3-5 3h-3v2l-6 2-4 1-11 3h-4v2l-5 1v2h-2l-2 4-5 3 3-6h2v-2l8-8 8-3h3v-2l5-1v-2h3v-2l7-5 4-6 2-6v-9l-2-4-2-1 4-2z" fill="#E19BB6"/>
<path transform="translate(31,536)" d="m0 0h3l-1 11-2 17h-4l-1-6-1 7-2 2v12l3 1 2 21 1 22 2 17v5l-4-5-2 1-2-5-3-33-1-17v-36l3-10 2-3z" fill="#8C516B"/>
<path transform="translate(153,613)" d="m0 0 4 1h-3v4h-2l1 6 8 3-1 6-5 1-1 3-6 2-11 1-16-2-4-2 5-5 2-3v-2l-6-2-24-1v-1l24-1 18-3z" fill="#E29BB6"/>
<path transform="translate(54,371)" d="m0 0h1l3 10 1 1 2 9-1 6-6 3-9 2-15 8-8 6-5 5h-2l-2 4-5 5-3 1-1 3-4 2v-10l8-7 1-2h2v-2h2v-2h2v-2l10-8 3-3 16-12h2l1-2 3-3 3-7z" fill="#DF8DA9"/>
<path transform="translate(216,384)" d="m0 0h18l5 3 1 4 4 1-16 5h-5l-1-5h-12l-3-2-8 1-30 7-29 7-45 8-6 2-5-1h-9l-1 3-3-3-6-12v-4l4 2 2 6 6 3 10 1 17-3 30-5 18-4 14-3 24-5 9-2 12-3z" fill="#E29BB6"/>
<path transform="translate(252,419)" d="m0 0 3 3-5 7h-2v2l-9 6-19 10-12 5-15 6-14 5-26 6-6 2-19 1-2-1v-4l13-1 19-4 9-3 31-10 18-7 17-9 9-5h2l1-3 3-1 2-3h2z" fill="#E7ABC2"/>
<path transform="translate(51,361)" d="m0 0h2l1 6v9l-4 8-4 4-10 7-8 6h-2l-2 4-7 6h-2v2h-2v2h-2v2h-2l-2 4-7 5v-8l3-5 6-2-1-2h-2v-2l6-1v-2h-2v-2h6v-2h2v-2h2l2-4 4-4 1-3 3-2v-4l4 1 5-6h3l2-4 6-8z" fill="#BC7793"/>
<path transform="translate(194,37)" d="m0 0h1l1 7h4l2 11 1 3 4 2 2 6 4 2 9 15v2h2l10 20 10 13 2 1v2l4 2 6 8 7 10 8 13 5 7 4 8 2 5h2l3 8-1 3-6-11-7-11-7-10-1-4h-2v-2h-2v-2l-4-2-7-7-11-16-9-14-12-19-10-16-8-13-6-9-2-4 1-7z" fill="#CAADBC"/>
<path transform="translate(408,601)" d="m0 0v3l-20 39-9 19-4 13h2l1-6 5-13 3-3 1 2-11 31-5 14-6 18-1-4 5-20-3 10-6 23-8 42-2 7h-1v-10l5-28 1-1 2-16 9-31 10-28 9-20 14-27 8-13z" fill="#C19CAE"/>
<path transform="translate(653,793)" d="m0 0h19l6 3-4 1h-19l-1 1h25l12 4 11 7 7 7 8 13 2 5v8l-2-3-5-12-9-12-7-5-8 1-13-5-6-1h-22l-13 6v-3l7-5-11 7-4 4h-2l2-4 10-8 12-6 5-2z" fill="#E8CFDA"/>
<path transform="translate(0,674)" d="m0 0 7 6 3 1 1 11v5l3 3-1 4 9 1 4 3 1 7-2 7-5-2-6-3h-6l-1 2h-3l-4-1z" fill="#CAADBC"/>
<path transform="translate(355,687)" d="m0 0 1 4-6 20-6 15-12 26-15 26-12 19h-2l-1 5-14 24-15 24-17 28-9 15-2 3-4-1 11-18 13-21 9-15 12-19 17-28 11-19 9-15 10-18 8-17z" fill="#C17F9A"/>
<path transform="translate(392,127)" d="m0 0 4 1 16 8 9 6 14 7 13 5 5 3v4h-10l-13-3-32-16-4-5-2-5z" fill="#FDF7F9"/>
<path transform="translate(691,780)" d="m0 0 6 1 11 8 13 13 6 13 4 21v12l-4 17h-2l-1 7h-2v4h-2l2-10 3-9v-20l-2-9-7-14v-4l-3-1-2-5-7-7-9-6-11-4-5-1h-18l-12 3-14 7-10 9-5 5-7 10-1-2 7-12 10-9 14-8 11-4 5-1h22l13 4 11 6 10 9 6 9v3l2-1-6-12-10-11-9-6-7-4z" fill="#BD7D98"/>
<path transform="translate(514,693)" d="m0 0 2 1-12 9-17 11-19 11-29 16-25 15-13 8h-2v-2l-5-2 3-3 8-3h2v-2l19-10 5-1v-2l5-3h4v-2l16-9 14-7 18-10 14-7 4-4z" fill="#F6EBEF"/>
<path transform="translate(458,520)" d="m0 0v3l-10 13-11 15-24 34-14 23h-2l-2 7-2 4-2 7-6 11-1-2 4-10-10 19-3 5-5 13-4 8-1-3 5-18h2l1-5 8-16 8-14 2-4h2l1-4 12-18 12-16 9-13 6-8h2l2-4 10-13z" fill="#BE96A9"/>
<path transform="translate(13,833)" d="m0 0h13l6 3 2 3v5l-7 6-9 3h-8l-10-4v-12z" fill="#F0D6E0"/>
<path transform="translate(359,303)" d="m0 0 4 2 5 10h11v2l-7 2-1 2 9-3h8l-2 2-12 3v2l7-1-1 3h-3v3h2v3l6-1 9-3v4l-8 3h-3v2l9-3h5l-1 2-10 4h3l6-3h4l-1 3-10 4 9-3h4v2l-9 3h-2v2l8-3h5v2l-9 3 10-2 1 4-9 2v2l8-3h3v3l-5 2 7-1v2l-5 2h-3v2h2l2 4 8-1-1 3-2 1h-6l-10-13-12-17-11-15-4-5-3-7-5-9z" fill="#F5EAEF"/>
<path transform="translate(210,697)" d="m0 0h17l3 3-6 3 11 5 2 4-8-4h-10l-10 4-8 9-5 10v8h-2l-2 4-2-6-1-11 3-9 1 3v8l2-12 6-8h3v-2l-6 2 1-5 8-5z" fill="#DE8DA9"/>
<path transform="translate(230,593)" d="m0 0 1 3v2h-5v11h2l4 7 2 2 2-5 1 2 9 2-1-11 2 4 3 14 3-3 1-5 2 2 2 4 2 1-1-12 2 1 3 8 3 3 1 4-9 2-13 1-11 2-6-5-4-9-2-14v-5l3-4z" fill="#E29DB7"/>
<path transform="translate(374,432)" d="m0 0 2 4-5 4h-2v2h-2v2l-8 7h-2l-2 4-4 4h-2v2l-5 3-10 9-6 4-3 3-10 6-14 6-4 1v2h-11l-3-3 6-1 9-2 10-6 4-2 3-3 8-6h2v-2h2v-2l4-1v-2h2v-2l12-7 4-4 7-4 2-2h3v-3l11-9z" fill="#E7ABC2"/>
<path transform="translate(597,626)" d="m0 0 2 1-8 8 3 6-9-1-1 5-1 2-5-1-3 3 1 6-3-1-4 2v2l-4 4 1 3-7 8-11 8-1 2h-2v2l-9 6-9 13-7 2 1-4h2l1-4-6 4-15 12-5 2 5-5 10-8 5-5 10-8 11-9 12-11 11-9 9-8-3-1 11-10 7-5 5-5z" fill="#D99DB4"/>
<path transform="translate(190,31)" d="m0 0 3 1-9 7 2 4 5 9 1 8-3-3-6-8-3-1v-2h-3l5 9 12 18 1 5-5-3-12-11-8-11v-4l-6-1-1-6 14-6 6-1z" fill="#E096B1"/>
<path transform="translate(330,13)" d="m0 0 3 3 3 7 8 4 1-2 4 32 8 48h-2l4 15 2 6-1 4-3-8-4-14-5-26-3-13-3-15-7-27-5-12z" fill="#E5CAD5"/>
<path transform="translate(349,735)" d="m0 0h1l-1 8-2 7 4-3-1 7-2 4-3 3-3 5-5 1-2 5-6 9-5 5-8 11-8 13-7 12-8 11-3 5h-2l2-5 6-9 7-12 6-11 3-5 5-8 8-11 10-18 6-10z" fill="#BF7A96"/>
<path transform="translate(326)" d="m0 0h28l-1 7-4 11-5 9-5-2-4-2-9-21z" fill="#FBF5F7"/>
<path transform="translate(1,383)" d="m0 0h6l7 4 15-1-2 1-1 5-5 4-1 2h-2v2h-2v2h-6v2h2v2l-6 1v2l4-1-1 3-3 2h-3l-1 4-2 1v-34z" fill="#DFA2B9"/>
<path transform="translate(568,798)" d="m0 0 4 1 10 8 5 6v3h2l7 14 3 17v6l-3 1-2 4-1-2-2-14-4-11-2-2-1 2-4-7-2-5-2-4v-3l-3 1-4-5 6 2v-4l-4-5z" fill="#D4BBC7"/>
<path transform="translate(462,546)" d="m0 0 6 2 3 3 3 8v7l-5 12-7 11h-2l-1 4-8 11-10 10-4 1-3-2-1-2 5-1v-2l5-5 5-6 4-4 7-10 8-14v-7l-3-7-6-2 1-3 4-2z" fill="#E7ABC2"/>
<path transform="translate(203,25)" d="m0 0m-1 1m-2 1 4 2 2 4-5 4v3l9 2 4 8 8 9 7 10 5 8 2 9 10 19 9 16-1 2-6-9-8-13-4-7-9-15-10-15v-2h-2l-2-5h-2l-1-5-5-2 1-6-8-2v-5l2-2v-3l-3-2z" fill="#DFCCD5"/>
<path transform="translate(365,438)" d="m0 0 2 1-4 4h-2v3l-7 4-2 2h-3l-1 3-13 8h-2v2h-2v2l-4 1v2h-2v2l-7 5-2 2h-3l-2 4-8 4-7 4-11 2-2-1 2-6 6-7 4-1 11-10h2v3l-8 7-8 8h-2v3l17-10h2v-2h2v-2h2v-2l11-7 10-6 9-5 5-6 13-8h2v-2z" fill="#E29BB5"/>
<path transform="translate(21,866)" d="m0 0 7 1 4 3h8l6-3 2 1v5l-5 3v-2l-7 3-12 1-3 1-2 5-3 3h-11l-5 2v-5l4-1 6-10h3l1-3z" fill="#DFCCD5"/>
<path transform="translate(134,290)" d="m0 0h1v9l-7 3h-6l-9 7-11 11-7 8-6 9-2 4-15 7-2-1 1-3 5-3 1-2h2l1-4h2l2-5 3-3h2l2-4 13-13 3-6 2 1 9-7 8-1h4v2l3-2z" fill="#DF91AC"/>
<path transform="translate(62,699)" d="m0 0 4 1 1 2 4-3 1 4 4-1h7v2l8-1 1 2h6l1 7-4 3h-2l-1 2-4-2h-5v-2l-10 2v-3l-6 3-2-2 4-3-8 4h-3l2-1-1-2-3 1 2-5-1-3z" fill="#BF97AA"/>
<path transform="translate(388,163)" d="m0 0 8 6 6 4 6 2 16 8 16 7 4 1h11l13-5 6-3 6-8 6-9 1 2-3 9h-2l-2 4h-2l-2 4h-2l-1 3-9 3-1 2-3 1-2-1-1 2-17 1-14-4-11-5v-4l-5-1-5-3-5-4-10-7-2-2z" fill="#E29AB5"/>
<path transform="translate(169,231)" d="m0 0 1 2h5l-5 10-7 9-8 7-8 5-7 6-3 3-3 5-4 2 2-4 1-6 5-2 1-2-2-2 5-4 1-3 4-4 1-5 6-2 6-7 4-2v2l3-3 1-4z" fill="#BE7995"/>
<path transform="translate(128,288)" d="m0 0h4v2h-9v2h2l1 2 7-1-2 4-5 1-8 1-9 7-2-1-3 6-19 19-3 5h-2l-1 4h-2l-2 4-4 3-1 3-11 6-5 4h-2v-3l5-5 3-2h5l1-7h5l-1-5h3v-2l6-5 1-2h2v-2l5-2 1-4 5-3 5-4 9-11h2v-2l6-5 5-6z" fill="#B6728E"/>
<path transform="translate(11,310)" d="m0 0 16 4 19 2 2 1 1 10-1 2h-13l-11-4-9-7-5-5z" fill="#FDF7F9"/>
<path transform="translate(367)" d="m0 0h33l16 7 19 10 6 4 8 6 10 9 7 7 6 10h-3l-7-9-10-10-16-12-16-8-13-5-14-4-23-3z" fill="#F7EDF1"/>
<path transform="translate(31,852)" d="m0 0h7l3 3 1 5-2 5-6 2-7-2-9 1-7 3-5-1-1-7 3-4 3-1 11-1z" fill="#CAADBC"/>
<path transform="translate(79,198)" d="m0 0 6 2 9 5 10 9 2 1v2l4 2 9 9 11 7 16 11 2 2-1 7-6 4-1-2 5-8-7-5-3 1-5-1-5-6-9-6-7-5-9-5-4-3 3-1-3-2v-2l4 1 3 2v-2l-4-2-7-6-7-4-6-4z" fill="#E3A0BA"/>
<path transform="translate(302,171)" d="m0 0h2v3h3v2l-13 4h-2v2l13-3h4v2l-13 3-2 1 17-2-1 5 4 1-12 3-3 2 10-1 8-1-1 2-15 4-2 3-1-4h-2l-4-5-4-4-3-10-1-3 7-1z" fill="#C6A6B4"/>
<path transform="translate(254,661)" d="m0 0 2 3 3 5 1 2-8 3-9 6-1 7 1 9-1 2h-2l1 3-3-1-2-5 1-5-4-10 2-6 9-11z" fill="#DE8CA8"/>
<path transform="translate(247,750)" d="m0 0v3l-3 7-7 6-11 4-10 1-8-1v-2l-3 1-8-9-4-6 1-2 8 6 10 4h12l13-4 4-1 2-4z" fill="#C292A8"/>
<path transform="translate(162,698)" d="m0 0h15l18 4-2 3h-6l-6-2-6 1h-12l-6 1-1 2-9 1-4 1-12 1-11 5h-2l-1 3-1-2 2-3 3-1 1-2 17-8 16-3h6z" fill="#BB94A8"/>
<path transform="translate(459,521)" d="m0 0h3l-2 4-14 19-11 15-7 10-12 17-13 20-10 17-1-4 5-11h2l2-5 13-21 13-18 10-14 8-11 10-13z" fill="#F1DCE4"/>
<path transform="translate(261,133)" d="m0 0 4 5h2l12-4 3 1v2h-3l-1 4 7-1-1 2-9 2v2l12-2-1 4h3l-1 4h5v3l-16 4-5-5v-3l-3-1-8-14z" fill="#E0C7D2"/>
<path transform="translate(535,64)" d="m0 0 9 1 4 1h14l10-2 8 1 23 9 14 5-3 1-26-8-11 2-4 1-2-4-5 3h-7l-16-4-1-2-7-3z" fill="#E5A6BE"/>
<path transform="translate(296,860)" d="m0 0h7l10 4 1 5-4 7-6 3h-9l-4-2v-11l2-4z" fill="#D4BCC8"/>
<path transform="translate(722,872)" d="m0 0 5 2 2 5 1 12-2 5h-23l4-6 7-10 1-4h5z" fill="#C9ACBB"/>
<path transform="translate(0,654)" d="m0 0 6 1 7 4h10l3 3v4h2l2 2 10 3-1 2-2-1v2l-7 1h-3v2l-5 1-7-4v-7l-6-4-7 1-2-1z" fill="#D5BDC9"/>
<path transform="translate(351,258)" d="m0 0h5l-1 2-16 6 9-2 10-2v2l-10 3h-3v2l15-3-1 3-10 3-2 1 16-2v2l-11 3h7l6-1-1 3-6 2-4 1v-2l-9 3 6 10-1 2-7-10-5-7v-4h-2l-3-9 9-3z" fill="#C6A4B3"/>
<path transform="translate(31,536)" d="m0 0h3l-1 11-2 17h-4l-1-6-1 7-3 2-1-1-1 20h-1v-36l3-10 2-3z" fill="#BF7C97"/>
<path transform="translate(48,612)" d="m0 0h10l17 4 13 4 5 1v1h-7l-21-6-14-1-1 5-6 1-2 4-3 1 2 8 5 4 3 4-1 5-5 2-2 4-2-2-2-13v-19l2-4z" fill="#E29DB7"/>
<path transform="translate(35,252)" d="m0 0h7l6 3 4 6-1 5-3 1h-23v-7l3-5z" fill="#FDF7F9"/>
<path transform="translate(354)" d="m0 0 3 1-6 20v26l3 25 4 27 3 14 3 8-1 4-4-10-6-26-7-46-1-10v-9l6-13z" fill="#844A63"/>
<path transform="translate(393,326)" d="m0 0 3 3 18 36v5l-6 3-5-1v-1l9-2 1-2-8 2-2-5h-2v-2l5-2h3v-2l-7 2-4-1 9-2v-3l-11 3v-2l9-2-2-3-6 2-4-1 8-3h2v-2l-13 3v-2l11-3v-2l-13 4-1-2 11-4 1-2-10 4-3 1v-3l10-4-7 1-6 1v-2l11-4v-2l-9 3-4 1v-3z" fill="#874D66"/>
<path transform="translate(566,653)" d="m0 0 2 1-14 13-11 9-15 12-15 11-15 10-19 12-12 7-12 6-27 16-10 6 2-4 9-6 23-13 27-15 19-12 20-14 12-9 10-8 13-11 11-9z" fill="#915C73"/>
<path transform="translate(355,105)" d="m0 0 3 1 4 15 6 15 6 8 7 6 32 16 22 10 4 1 13 1v1h-16l-12-4-17-9-13-5-7-4-7-3-8-7-6-8-5-9-6-21z" fill="#F7EDF1"/>
<path transform="translate(585,639)" d="m0 0 1 4v4l6 8 1 5-4 5h-2v-2l-6-1h-6l-5 2-3-2v-4h2v-2l5-3v-2l2-4 2-2 5 1v-5z" fill="#E6AAC1"/>
<path transform="translate(214,694)" d="m0 0h13l12 6 7 7v2h2l5 11 1 6-2-2-3 5-4-1-5-6-4-5-3-3-6-2h-11l-4 1 3-3 4-1h9l7 3 4 4 3 1v2h2v-6l-2-4-5-5-4-5-6-2-17-1z" fill="#E6AAC1"/>
<path transform="translate(369,288)" d="m0 0h4v2l4 4v2l-4 1h5v3l-15 3h-4l8 14-1 3-10-14-2-7v-7z" fill="#E6CED8"/>
<path transform="translate(570)" d="m0 0h17v2l4 2 10 7 20 16 13 6-3 1-10-4-16-11-13-5-16-10-6-3z" fill="#E29AB5"/>
<path transform="translate(641,781)" d="m0 0 3 1h-2v2l-3 2 15-5h16l1 1 7 1v1l-19 1-14 4-13 7-10 8-1-2-3 1 2-5 5-6 11-8z" fill="#B08095"/>
<path transform="translate(39,762)" d="m0 0 8 1 1 3-1 5 3 1v2h3v2h2l-2 5-9 2-4-1v-2l-3-1-2-7-4-3 1-4z" fill="#CAADBC"/>
<path transform="translate(370,5)" d="m0 0h14l16 3 20 7 16 8 10 8h-3l-11-7-9-4-33-8-17-4z" fill="#F1E2E8"/>
<path transform="translate(20,829)" d="m0 0 8 1 10 6 3 4 1 4-4 4-11 4-12 3h-10l-5 1v-7l10 3h8l11-4 4-4v-5l-1-3-6-2h-13l-10 3-3-1 8-5z" fill="#DFCCD5"/>
<path transform="translate(32,724)" d="m0 0 1 2h5l-1 8-1 6 3 10 3 2-1 4-5 4-5-1-2-6h-2l1-7h2v-12l-1-7z" fill="#CAADBC"/>
<path transform="translate(58,382)" d="m0 0h1l2 9-1 6-6 3-9 2-15 8-8 6-5 5h-2l-2 4-5 5-3 1-1 3-4 2v-4l4-1 2-4 3-3h2l2-4 3-1 1-3 5-4h2v-2l4-1v-2l15-10 6-1 1-2 4-3h3z" fill="#E7ABC2"/>
<path transform="translate(566,680)" d="m0 0 4 2-1 5-12 12-10 5-4 1-1-1v-5l3-1 2-4 10-9 7-4z" fill="#DF8DA9"/>
<path transform="translate(458,520)" d="m0 0v3l-10 13-11 15-24 34-13 21-1-2-4 2 2-5 30-42 6-8h2l2-4 10-13z" fill="#CCB0BE"/>
<path transform="translate(395,338)" d="m0 0h4l-1 3-10 4 9-3h4v2l-9 3h-2v2l8-3h5v2l-9 3 10-2 1 4-9 2v2l8-3h3v3l-5 2 7-1v2l-5 2h-3v2h2l2 4 8-1-1 3-2 1h-6l-10-13-8-11 1-5z" fill="#EAD5DE"/>
<path transform="translate(128)" d="m0 0h12l3 5v2l3 1 6 14v6l-4-1-9-10-6-9-5-6z" fill="#E7ABC2"/>
<path transform="translate(57,592)" d="m0 0 5 1h9l1 3-18 8-10 2-4-2-3-5 1-3 9-1 3-1z" fill="#DAC2CD"/>
<path transform="translate(48,831)" d="m0 0 4 2 5 6 7 14 1 11-2-1-3 1-2-3v-4h-2l-3-7-10-15v-2l5 2z" fill="#E8B1C6"/>
<path transform="translate(206,23)" d="m0 0h3l15 25 8 13 3 5-1 3-5-5-8-11-10-13-4-4-3-12z" fill="#F8EFF3"/>
<path transform="translate(61,343)" d="m0 0h1v5l3-1v2l-7 2-4 5h-2l1 5h-2l-1 5-7 8-1 2h-3l-1 2v-2l-6 1-7-2v-2h6l3-2-1-5h5l1-2-4-2 2-1 8 4 3-1-4-2v-2h3v-3l3-2 1-3h4l2-5 1-3z" fill="#D88BA6"/>
<path transform="translate(55,251)" d="m0 0 6 1 5 5 2 7-4-1-3 6-8 4-16 3-7-1v4l-5-2-4-3-1-6h2l1-2 3 9 2 1-1-4h10l15-3 4-2 2-6-3-7z" fill="#D4BCC8"/>
<path transform="translate(367,691)" d="m0 0h1l-1 9-7 27-8 42-2 7h-1v-10l5-28 1-1 2-16 8-27z" fill="#D7BECA"/>
<path transform="translate(446,31)" d="m0 0 7 3 13 13 8 12 3 9 6 13 5 16v6l-2-1-4-16-4-11-7-11-6-8-4-5-2-5-14-14z" fill="#C4A2B3"/>
<path transform="translate(377,768)" d="m0 0 2 2-1 11h-3l-5-1v2l-7 3-4-1-4-2h2l-1-6 3-5 6-2 3 5z" fill="#BE7E98"/>
<path transform="translate(513)" d="m0 0h24l-4 4-3 1-9 9-5 4-3 1-1-7 1-4-1-7z" fill="#E7ABC2"/>
<path transform="translate(1,383)" d="m0 0h6l8 5 6 1v3h-5v2l-4 2v3l-8 2v3l-4-1v-19z" fill="#E6ACC2"/>
<path transform="translate(181,48)" d="m0 0 4 2 6 9v-5l4 4 7 12 13 20v1h-5l-1-3h-2l-9-12-8-13-9-14z" fill="#CEB1C0"/>
<path transform="translate(212,320)" d="m0 0 5 1 4 8-1 4-24-1-1-5 9-4z" fill="#FDF7F9"/>
<path transform="translate(266,166)" d="m0 0 4 2 10 15 8 15 9 10-1 3h2l6 11 10 17 2 5-5-5-7-10-6-12-8-9-11-19-3-5-3-7-4-5-3-4z" fill="#BF7A96"/>
<path transform="translate(207,696)" d="m0 0h20v1l-17 1-10 5-1 5-3 4-7-1-10-4-11-1-11 1v-2l6-2h12l3-1 8 1 4 1 4-1 9-6z" fill="#DE8DA9"/>
<path transform="translate(496,731)" d="m0 0 2 1-4 2 1 4-18 10-14 7-5 3h-2l-1-1h-2v2l-4-2 14-8 19-10 10-6z" fill="#CAACBB"/>
<path transform="translate(659,784)" d="m0 0h22l13 4 11 6 10 9 6 9-1 3-7-9-9-9-9-6-11-4-5-1h-18l-12 3-14 7-10 9-5 5-7 10-1-2 7-12 10-9 14-8 11-4z" fill="#844963"/>
<path transform="translate(57,381)" d="m0 0h1v8l-1 2-5 3-3 2h-3l-1 2-5 2-10 7h-2v2l-4 1v2l-7 5-6 7-6 5-3 3h-2v-3l6-5 4-4h2l2-4 10-9h2v-2l11-7 5-4 5-3 7-5 1-2h2z" fill="#E29BB6"/>
<path transform="translate(519,62)" d="m0 0 6 1 22 7 21 5 6 2v2l-17-2h-14l-5-2v-2l-4-2-9-4-6-4z" fill="#C17C98"/>
<path transform="translate(376,302)" d="m0 0h5l5 9v2l-13 3h-5l-6-9v-2z" fill="#DDBFCC"/>
<path transform="translate(26,244)" d="m0 0h6l-3 7-5 2-1 5-3 5-4 1-2 5v11l3 6 11-1 3 2-10 2-2 2-4-4-3-5v-18l6-12 1-4z" fill="#D5BDC9"/>
<path transform="translate(455,755)" d="m0 0 3 1-1 1 1 2-7 3-7 4-10 6-5 6-4 3-7-2 1-3h2l2-4 13-8 12-6 5 1v-2h2z" fill="#CEA9BA"/>
<path transform="translate(283,830)" d="m0 0 1 2-17 28-16 26-6 10-4-1 11-18 13-21 9-15 5-5z" fill="#C499AD"/>
<path transform="translate(383,265)" d="m0 0 2 1 1 15-5 3-6-1-4-5v-10l2-2v3l2-1h8z" fill="#D88CA8"/>
<path transform="translate(448,745)" d="m0 0 2 1-9 6-14 9-10 8-17 16-8 8-1-2 12-16 5-5 15-11 4-2h3v-2l11-6z" fill="#BD98AB"/>
<path transform="translate(143,708)" d="m0 0 2 1-10 4-9 5h-2v2h-2v2h-2l-2 4-4 6h-2v-3h-5l2-4-2-1 1-3 3 2v-2l6-4 3-3 11-5z" fill="#DE8EAA"/>
<path transform="translate(321,767)" d="m0 0 1 2-10 17-7 11h-2l-1 5-14 24-8 10-4 4 2-5 8-13 17-28 11-19 3-5h3z" fill="#BF879F"/>
<path transform="translate(438,729)" d="m0 0 4 1 3 2-5 2v2l-9 3v2l-7 3-3 2-3-1 3-2-3-3 1-1-8-1-1-2 11-1 4-3z" fill="#D1B6C3"/>
<path transform="translate(329,227)" d="m0 0 9 1-1 2-6 1v2l9-1-1 3-4 3-2 2-10 2-3-3-4-7v-2z" fill="#DABDCA"/>
<path transform="translate(230,593)" d="m0 0 1 3v2h-5v11h2l4 7 2 2 2-5 1 2 9 2 1 5-10 2-2 3-4-2-1-5h-2l-3-6-2-10v-5l3-4z" fill="#E7ABC2"/>
<path transform="translate(443,209)" d="m0 0 5 1 3 4v4l-7 1-5-1 1 4h6l4-3h2l2 9-4 2-7-1-5-6v-10z" fill="#D58DA8"/>
<path transform="translate(326,248)" d="m0 0h2l1 2 3 2h-2v2l15-6 6 1v2l-15 6h-2v2l13-5 6-1v2l-14 5h-2v2l2 1h-3l-1 2v2l1 4-4-4-6-12z" fill="#D3B7C4"/>
<path transform="translate(597,626)" d="m0 0 2 1-8 8 3 6-9-1-1 5-1 2-5-1-3 3 1 6-3-1-4 2v2l-8 7-15 13-10 9-8 7-2-1 5-5 13-12 11-9 13-12 2-2-2-1 11-10 7-5 5-5z" fill="#B6718C"/>
<path transform="translate(293,157)" d="m0 0h3l4 8-1 1 2 2-10 4-5 1-6-12z" fill="#C49EB0"/>
<path transform="translate(364)" d="m0 0 23 3 16 4 10 3 16 7 11 7 10 8h-3l-13-9-16-8-11-4-16-4-7-1-17-1-3-3z" fill="#844962"/>
<path transform="translate(227,697)" d="m0 0 6 1 7 9 4 4 1 6-1 2h-2v-2l-4-1-4-4-6-2-9-1 1-2h9l7 4-2-3-12-4 3-3 4-2z" fill="#DF8EAA"/>
<path transform="translate(198,247)" d="m0 0 2 1-2 5-15 5-4 2h-3v2l-6 2-4 1-11 3h-4v2l-5 1v2h-2l-2 4-5 3 3-6h2v-2l5-4 16-6 10-4h3l1-3h2v-2l6-1 5 1 7-3z" fill="#E7ABC2"/>
<path transform="translate(36,812)" d="m0 0 8 2v2h2v2h2v2l9 3 3 8 1 5-2 2-9-10-2-1v-2h-3v-2h-3l-5-5-2-1z" fill="#DECAD3"/>
<path transform="translate(486,166)" d="m0 0 1 2-3 9h-2l-2 4h-2l-2 4h-2l-1 3-2 1-6 1-9 3h-15l-16-6-14-7-6-5h3l16 8 16 7 4 1h11l13-5 6-3 6-8z" fill="#DB8DA8"/>
<path transform="translate(268,150)" d="m0 0 4 1 3 5v2l10-2 8-1 2 2-13 4v3l4 8 11-3 5-2v4l-4 2-12 3-4-2-6-10-3-6-5-7z" fill="#D6BFCB"/>
<path transform="translate(357)" d="m0 0h7l7 11 6 4-3 1-7-6-2-5-2 1-3 12-2 2-4 2-3-3 3-12z" fill="#E0A5BC"/>
<path transform="translate(181,39)" d="m0 0h2l8 13 1 8-3-3-6-8-3-1v-2h-3l5 9 2 5-6-3-4-5-1-5-3-1 6-5z" fill="#B4738E"/>
<path transform="translate(330,13)" d="m0 0 3 3 6 16 8 34 1 1 3 19 2 9 5 22 3 9-1 4-3-8-4-14-5-26-3-13-3-15-7-27-5-12z" fill="#9F6C82"/>
<path transform="translate(655,796)" d="m0 0h19l14 3 13 7 10 9 7 10 3 9 1 5v7h-1l-4-15-7-12-8-9-13-8-10-3h-29l2-2z" fill="#8F576F"/>
<path transform="translate(114,584)" d="m0 0h2v2l-18 5-15 3h-7v-1l6-1h-11l-6-2-2-1 5-3h9l13 2 10-1z" fill="#D5BDC9"/>
<path transform="translate(408,601)" d="m0 0v3l-20 39-9 19-4 13-3 5-1-4 8-21 12-25 12-22z" fill="#D9BBC8"/>
<path transform="translate(103,300)" d="m0 0 6 1-6 7-5 6-7 6-3 1-1 3-5 2-2-1-2 5-1-4 2-4 11-9 8-7z" fill="#DC92AD"/>
<path transform="translate(193,33)" d="m0 0 3 2-3 5v5l5 9 6 9 10 16 13 21v2l-3-1-9-15-7-11-8-13-2-6h-2l-7-12v-8z" fill="#BC8DA3"/>
<path transform="translate(369,690)" d="m0 0 1 4-8 33-4 24-5 25-2-2 1-9 8-43 8-30z" fill="#874D66"/>
<path transform="translate(410,600)" d="m0 0 1 2-12 23-8 19-4 9-3 1-7 21h-2l1-6 5-14 8-16 10-19 8-16z" fill="#BC98AA"/>
<path transform="translate(572,64)" d="m0 0 8 1 23 9 14 5-3 1-26-8-11 2-4 1-2-4-2-1 4-4z" fill="#E6AAC1"/>
<path transform="translate(557,812)" d="m0 0 5 2 8 6 7 7 4 9 3 14v9l-2-3-3-13-8-15-8-7-1-4z" fill="#BF9AAC"/>
<path transform="translate(238,134)" d="m0 0 5 4 4 4 4 5 6 11-4 4-11-15-6-9v-3z" fill="#D7BECA"/>
<path transform="translate(326,454)" d="m0 0 2 1-3 1-2 4-8 6-4 5h-2v2l-11 9-4 2 6-7 6-6h2v-3l-11 9-3 3h-2l1-3 11-9 8-7z" fill="#DF92AD"/>
<path transform="translate(247,750)" d="m0 0v3l-3 7-7 6-11 4-10 1-8-1v-2l-3 1-8-9-1-3h2v2l3 1v3l5 2 10 3h8l9-3 2-4-6 1 3-2 6-3h3l2-4z" fill="#E199B4"/>
<path transform="translate(186,215)" d="m0 0 3 4 3 10-1 5 4 1-3 2-2 6 8-1-2 4h-7v2h8l-2 3h-8l-3-3 1-7 4-6-2-7z" fill="#E39EB6"/>
<path transform="translate(491,142)" d="m0 0 1 4-2 7 3 1-3 9-3 3 1-5-10 11h-5l6-7 5-7h-2l2-6 4-8z" fill="#D4B5C3"/>
<path transform="translate(31,536)" d="m0 0h3l-1 11-2 17h-4l-1-6h-1v-8l1-9h2v-2l-3 1-1-3z" fill="#C37E9A"/>
<path transform="translate(219,707)" d="m0 0m-3 1h3v2l-6 2-2 3h-2v2l-5 5-2 6v9l3 6 3 4-4-2-4-5h-3l-2-4 1-7 6-11 7-7z" fill="#E39FB9"/>
<path transform="translate(38,456)" d="m0 0 6 1 1 1v5l-2 2h-7l1 2h6l4-2 1 5-3 4h-6l-6-8v-6z" fill="#C58AA1"/>
<path transform="translate(604,91)" d="m0 0 6 2 18 10 16 10 15 7 13 2 3 2h-15l-9-3-8-5-11-7-16-10-12-7z" fill="#DE92AD"/>
<path transform="translate(691,780)" d="m0 0 6 1 11 8 13 13 6 13 4 21v12l-1 6h-1v-15l-2-13-3-5-2-10-6-10-9-10-9-6-7-4z" fill="#C09BAD"/>
<path transform="translate(617,852)" d="m0 0 2 4 5 15 3 6 7 9 12 9v1h-7l-10-8-7-10 1-3-5-12z" fill="#CBA6B6"/>
<path transform="translate(696,817)" d="m0 0 4 2 7 8 5 11 3 10 1 5v15l-2 9-6 10-7 9-3-1 7-8 6-9 2-5v-21l-4-15-6-11-7-8z" fill="#BE88A0"/>
<path transform="translate(659,800)" d="m0 0h12l12 3 11 5-1 2-5 1-13-5-6-1-17-1v-1h5v-2z" fill="#D3BAC6"/>
<path transform="translate(19,272)" d="m0 0h2l5 5 8 5 4-1h2v-2l5-1 1 4-8 2h-19l-3-3-1-5z" fill="#BB95A8"/>
<path transform="translate(653,793)" d="m0 0h19l6 3-4 1h-19l-5 1-1 3-10 3-11 8-4 2 2-4 10-8 12-6 5-2z" fill="#D5B6C4"/>
<path transform="translate(251,462)" d="m0 0h5l4 5v6l-4 4h-5l-4-5v-6z" fill="#E0AFC2"/>
<path transform="translate(89,269)" d="m0 0h4v7l-6 14-5 5-2-1 1-10z" fill="#FDF7F9"/>
<path transform="translate(3,720)" d="m0 0 2 1 2 5 2-2 1 3-2 6 1 2-6 8-3 1v-23z" fill="#E09DB5"/>
<path transform="translate(201,708)" d="m0 0 3 1-2 3v4l-1 2h-2v2h-2l-1 4v15h-2l-2 4-2-6-1-11 3-9 1 3v8l2-12z" fill="#C17D99"/>
<path transform="translate(516,223)" d="m0 0v3l-9 16-10 17-5 5-11 10-4 6-5 3h-2v-3l6-5 5-5 14-13 6-10 8-13 5-9z" fill="#BF7A96"/>
<path transform="translate(416,594)" d="m0 0h4l-1 5h-2l1 7 3 9-4 1-3 1-2 4-1-2 1-12v-4l-2-1z" fill="#E7AEC4"/>
<path transform="translate(406)" d="m0 0h14l6 2 6 4 1 7-5-1-15-8-7-3z" fill="#FDF7F9"/>
<path transform="translate(202,772)" d="m0 0 5 1 2 6-6 3h-4l2 3 5-1 4-2v6l-3 3-7-4-4-6 1-5z" fill="#BD7993"/>
<path transform="translate(210,697)" d="m0 0h17l3 3-1 1-14 1-9 3h-4v2l-4 1 1-5 8-5z" fill="#BF7A96"/>
<path transform="translate(49,366)" d="m0 0v3l-2 6-9 7-3 5-8 7h-2v2l-8 8h-2v2h-2l3-6h2v-2h2l2-4 4-4 1-3 3-2v-4l4 1 5-6h3l2-4z" fill="#834962"/>
<path transform="translate(320,211)" d="m0 0 4 1-4 2h-4v2l5 1-1 2h-2v2h12l-1 2-15 4-6-10 2-4z" fill="#C29BAC"/>
<path transform="translate(128,288)" d="m0 0h4v2h-9v2h2l1 2 7-1-2 4-5 1-8 1-9 7-4-2 4-2v-2l6-5 5-6z" fill="#C17C98"/>
<path transform="translate(345,52)" d="m0 0 3 1 7 40 2 12-3-1-3-16-3-12-1-9-1-1v-10z" fill="#EBD9E1"/>
<path transform="translate(649,794)" d="m0 0h6l-4 2-9 4-10 6-10 9-7 11-4 13-2 11h-1v-9l4-15 7-12 9-9 14-8z" fill="#884E67"/>
<path transform="translate(575,611)" d="m0 0 5 2 10 9 3 3-6 10-4-1-6-8-7-6 1-3 13 12-1-4h2l3 3-2-4-1-5-3 1-2-4-5-3z" fill="#E6A8BF"/>
<path transform="translate(220,537)" d="m0 0 7 1-5 5-2 5h2l-1 12-1 11-2 1-1-10v-24z" fill="#E5A6BE"/>
<path transform="translate(371,292)" d="m0 0 5 1 1 3-4 1h5v3l-15 3-4-1v-2l-3-2v-2z" fill="#CCA8B8"/>
<path transform="translate(170,840)" d="m0 0h2v2l4-1 4 2 5 6-4 3h-12l-1-4 1-3h-3l1-3h3z" fill="#DFCCD5"/>
<path transform="translate(405,352)" d="m0 0 3 1 6 12v5l-6 3-5-1v-1l9-2 1-2-8 2-2-5h-2v-2l5-2h3v-2l-7 2-4-1 9-2v-3l-11 3v-2z" fill="#864C65"/>
<path transform="translate(14,839)" d="m0 0h9l2 2v5l-7 3h-7l-2-1 1-7z" fill="#FDF7F9"/>
<path transform="translate(717,876)" d="m0 0h3l-2 6v5l2 3v6h-15l4-6 7-10z" fill="#BA92A5"/>
<path transform="translate(479,718)" d="m0 0v3l-12 7-12 6-27 16-10 6 2-4 9-6 23-13z" fill="#8D556D"/>
<path transform="translate(459,521)" d="m0 0h3l-2 4-14 19-11 15-2 1 2-5 4-8 12-16z" fill="#F7EBEF"/>
<path transform="translate(303,867)" d="m0 0 9 1 1 3-3 5-6 3h-7v-3l3-6z" fill="#DFCBD4"/>
<path transform="translate(44,690)" d="m0 0 4 2 1 3-1 4 4-1v2h4l1 3-2 2 1 2-6 4-2-1 4-5 1-2-7 4 1-4-8 4 5-7-4 1-2-1 5-4-2-2z" fill="#CAADBC"/>
<path transform="translate(320,200)" d="m0 0 1 4 4 1v2l-12 4h-6l-3-5v-2z" fill="#D6B4C3"/>
<path transform="translate(404,167)" d="m0 0 5 1 21 10 8 2 15 1v1l-5 1h-13l-13-4-14-8z" fill="#F5E8ED"/>
<path transform="translate(363,280)" d="m0 0h5v2l-2 1 4 2-9 3-10 2v-3h-2l-2-5 6-1-2 2z" fill="#B78D9F"/>
<path transform="translate(700,786)" d="m0 0 4 2 10 9 7 10 3 7-1 3v-2h-2l-5-9-6-7-5-4-8-8z" fill="#DEC3CF"/>
<path transform="translate(315,198)" d="m0 0 4 1 1 2-11 3h-5l3 6h6l10-3-1 2 7 1-1 2h-8l-10 2-3 1-5-9v-3l6-3z" fill="#DFC1CE"/>
<path transform="translate(654,798)" d="m0 0h25v1l-22 2v2l-13 3-10 5v-3l9-6z" fill="#DDC8D2"/>
<path transform="translate(63,620)" d="m0 0 7 1 2 3-1 5-5 2h-7l-1-1v-7z" fill="#BF7A96"/>
<path transform="translate(351,279)" d="m0 0h3v2l4-1 1 2-9 2v-2l-2 1 1 4h2v3l16-4v2l2 1-12 3h-3v2l3 1h-3l-1 4-5-10-4-7 2-2z" fill="#DCC1CD"/>
<path transform="translate(719,866)" d="m0 0h1l1 8-3 4-7 11-6 7-4-1 10-14 7-12z" fill="#DABFCB"/>
<path transform="translate(39,632)" d="m0 0 7 6 3 4-1 5-5 2-2 4-2-2z" fill="#E19AB5"/>
<path transform="translate(502,818)" d="m0 0 2 1-6 7-6 11-3 12v15l2 14-2-2-2-5-1-8v-16l6-16 8-11z" fill="#90566F"/>
<path transform="translate(660,780)" d="m0 0h20l10 3 13 8 2 3-5-2-11-5-11-3-7-1-1-1-10-1z" fill="#C8A9B9"/>
<path transform="translate(117,229)" d="m0 0 5 1 16 10 10 8-1 7-6 4-1-2 5-8-6-4v-2l-5-2-10-6-7-4z" fill="#DD97B1"/>
<path transform="translate(475,63)" d="m0 0 4 4 1 4h2v4h2l7 27 1 7v10h-1l-3-19-8-24-5-10z" fill="#FAF0F4"/>
<path transform="translate(287,887)" d="m0 0 4 2v7h-17l1-4 5-1v-2z" fill="#CAADBB"/>
<path transform="translate(378,153)" d="m0 0 9 3 5 3v3h2v3h2v2l3 1v2l5 2 1 2-4-1-9-6-3-3h-3l-5-7v-2l-3-1z" fill="#B68EA2"/>
<path transform="translate(709,875)" d="m0 0 3 1-2 5-9 12-3 3h-8l5-5 7-6z" fill="#E5CAD5"/>
<path transform="translate(82,707)" d="m0 0h2l-1 4h4v-2l7-2-2 3h-2l1 1 4-2 3 1-3 3v2h-2l-1 2-4-2h-5v-2l-10 2 1-7 5 1z" fill="#E4A9C0"/>
<path transform="translate(39,365)" d="m0 0 3 1-2 4h-2v2l3 1v-3l4-1-1 4-2 3h-3l-1 2v-2l-6 1-7-2v-2h6l3-2-1-5h5z" fill="#E5AAC0"/>
<path transform="translate(395,338)" d="m0 0h4l-1 3-10 4 9-3h4v2l-9 3h-2v2l8-3h5v2l-11 4v-2l-3 1-3-4 1-5z" fill="#E5CFD9"/>
<path transform="translate(136,280)" d="m0 0 1 2-3 2v13l-4 2 2-5-6 1-1-3h-2v-2h9v-2h-8l1-4 8-2z" fill="#E29AB4"/>
<path transform="translate(571,651)" d="m0 0v3l-10 9-28 24-3 3h-2l2-5 14-11 14-12 10-9z" fill="#E2C6D2"/>
<path transform="translate(412,585)" d="m0 0 2 4-11 17-10 17-1-4 5-11h2l2-5z" fill="#ECD7DF"/>
<path transform="translate(411,17)" d="m0 0 7 1 9 3 12 6 13 11 9 9-1 2-10-10-15-11-18-8-6-2z" fill="#864B64"/>
<path transform="translate(306,468)" d="m0 0h2v3l-8 7-8 8h-2l-2 4-5 2 2-6 6-7 4-1z" fill="#E39EB8"/>
<path transform="translate(196,742)" d="m0 0 5 2 7 8-2 5-5-2-9-9 1-2 3 2-1-3z" fill="#E29DB8"/>
<path transform="translate(618,871)" d="m0 0 3 3 6 10 5 5 7 6-3 1-11-10-3-3 4 7v3l-8-10-1-8z" fill="#B58B9F"/>
<path transform="translate(615,806)" d="m0 0 1 2-3 9v9l-5 17h-3l2-14 5-18z" fill="#C7A7B7"/>
<path transform="translate(29,580)" d="m0 0h2l4 34 1 19-2-4-3-21z" fill="#824861"/>
<path transform="translate(544,78)" d="m0 0 18 1 2-1h12l24 10 4 2-1 2-25-10-4-1h-20l-10-2z" fill="#E195B0"/>
<path transform="translate(267,118)" d="m0 0h5l2 4v3l-9 3-4-1-2-6z" fill="#C9A5B6"/>
<path transform="translate(253,90)" d="m0 0 4 4 1 5-7 2h-4l-3-8z" fill="#99667C"/>
<path transform="translate(287,853)" d="m0 0 5 1-1 4-3 6v8l1 4-5-5-1-2v-11z" fill="#824861"/>
<path transform="translate(283,830)" d="m0 0 1 2-17 28-4 6h-1l1-7 11-18 5-5z" fill="#C9A3B4"/>
<path transform="translate(241,700)" d="m0 0 4 2 6 8 4 11 1 5v9l-2 9h-3l2-10v-11l-5-12v-2h-2l-6-8z" fill="#E198B2"/>
<path transform="translate(408,409)" d="m0 0 2 1-21 12-8 3-3 6h-3l-1-5 16-8 15-8z" fill="#E7ABC2"/>
<path transform="translate(422,29)" d="m0 0h9l14 7v2l5 2 6 4 2 3-5-1-16-10-12-5z" fill="#E09DB7"/>
<path transform="translate(502,236)" d="m0 0h2l-1 4-5 10-1 5-2 1 1-6-3 1-1-3-3 2 2-4 6-7z" fill="#E39EB8"/>
<path transform="translate(114,305)" d="m0 0 2 1-14 14-7 8-6 9-2 4-4 1 1-4 4-5 1-3h2v-2h2l2-4z" fill="#E7ABC2"/>
<path transform="translate(302,171)" d="m0 0h2v3h3v2l-13 4-6-1v-4z" fill="#A7788C"/>
<path transform="translate(355,687)" d="m0 0 1 4-6 20-6 15-3 3-1-2 14-37z" fill="#C7819C"/>
<path transform="translate(566,653)" d="m0 0 2 1-14 13-11 9-15 12-5 3 2-4 14-11 14-12 11-9z" fill="#8E526B"/>
<path transform="translate(1,383)" d="m0 0h6l4 4-2 2-4 1 5 2v2l-7 1-3 1v-12z" fill="#E8B3C8"/>
<path transform="translate(290,40)" d="m0 0 2 1 9 1 1-2 1 4-2 1h-6l-2-1 1 5h5l5-3-1 5-3 3-5-1-4-5-1-2z" fill="#E4A2BB"/>
<path transform="translate(575,2)" d="m0 0 12 3 5 3 9 7 3 3-5-1-10-5-14-9z" fill="#E7ABC2"/>
<path transform="translate(436,557)" d="m0 0 2 4-1 4-5 2-1 6h-2l-1 2-3-1 2 7-7 2 2-4 3-7 9-13z" fill="#B6748F"/>
<path transform="translate(515)" d="m0 0h16l-3 3-8 7-5-3z" fill="#E29BB6"/>
<path transform="translate(570)" d="m0 0h17v2l4 2 8 5-2 3-4-2-3-3-13-4-7-2z" fill="#E29EB8"/>
<path transform="translate(654,781)" d="m0 0h16l1 1 7 1v1l-19 1-10 2-5-1 1-2z" fill="#BC94A7"/>
<path transform="translate(262,172)" d="m0 0 5 5 6 9 7 11 7 8v2l-4-2-10-13-11-18z" fill="#C2A1B2"/>
<path transform="translate(85,869)" d="m0 0h1l-1 12-2 14-1 1h-8l2-5 4-1 2-11z" fill="#FDF7F9"/>
<path transform="translate(55,259)" d="m0 0 2 1v7l-8 4-16 2-6-1 1 4-3-1-1-6 15 1 10-2 4-2z" fill="#DECBD4"/>
<path transform="translate(450,219)" d="m0 0h2l2 9-4 2-7-1-3-3 1-3 7-2z" fill="#DD93AD"/>
<path transform="translate(493,113)" d="m0 0 2 3 3 5 1 7v11h-1v-5l-4-2-1 3z" fill="#DFCCD5"/>
<path transform="translate(471,59)" d="m0 0h3l3 9 6 13 5 16v6l-2-1-4-16-4-11-7-11-2-3z" fill="#C6A6B6"/>
<path transform="translate(296,860)" d="m0 0h7l10 4 1 5-1-3-9-3h-6l-3 5-2 10-2-1v-11l2-4z" fill="#CAADBC"/>
<path transform="translate(367,691)" d="m0 0h1l-1 9-6 22h-2v-9l7-21z" fill="#E2CAD5"/>
<path transform="translate(28,580)" d="m0 0 2 2 1 15v13h-3l-1-9v-16z" fill="#E3BDCC"/>
<path transform="translate(380,308)" d="m0 0 5 1 1 4-13 3h-5l-1-4z" fill="#E0C3CF"/>
<path transform="translate(182,41)" d="m0 0 4 2 5 9 1 8-3-3-6-8-3-1v-2l-3-1z" fill="#BC95A8"/>
<path transform="translate(242,665)" d="m0 0 2 2-1 3 2 1-5 5-3 7-1 4-3-7 2-6z" fill="#BB94A8"/>
<path transform="translate(18,374)" d="m0 0 12 3 3 3 1-2 4 1-5 4-3-2-2 4-7-1v-2l-4-1-2-1v-2l9 2v2l5-2-10-4z" fill="#D78FAA"/>
<path transform="translate(429,841)" d="m0 0h2v3l12-2-2 4-1 1h-8l2 3 8-1 1-3 2 1-5 6-4 1-6-5-1-2z" fill="#CB84A0"/>
<path transform="translate(45,459)" d="m0 0 3 3 2 7-1 6-2 2-6-1-2-2 7-2 1-3-1-3-3 2h-6l-1-3 7-1z" fill="#E39EB7"/>
<path transform="translate(341,245)" d="m0 0h7l-1 3-14 6h-3l-2-5 6-2z" fill="#A9788E"/>
<path transform="translate(434,836)" d="m0 0 7 1 3 4v4l-2-1 1-2-5 2h-7l-1-5z" fill="#E29BB5"/>
<path transform="translate(409,764)" d="m0 0 2 3-4 6-5 5-10 12-2-1 11-16 4-6z" fill="#F7EBF0"/>
<path transform="translate(514,693)" d="m0 0 2 1-12 9-17 11v-3l3-4 12-6 4-4z" fill="#FAF0F4"/>
<path transform="translate(564,659)" d="m0 0 2 1-7 7-11 9-12 11-8 7-2-1 5-5 13-12 11-9z" fill="#91546E"/>
<path transform="translate(418,187)" d="m0 0 5 1 15 5 18-1 11-4 2 1-5 2-1 2-3 1-2-1-1 2-17 1-14-4-8-4z" fill="#E4A4BD"/>
<path transform="translate(125,734)" d="m0 0 5 2-2 11-5 2-3-11h2l1-3 2 1z" fill="#E7ACC2"/>
<path transform="translate(399,339)" d="m0 0h2l6 13-4-2-6 2-4-1 8-3h2v-2l-13 3v-2l11-3v-2l-13 4-1-2z" fill="#864B65"/>
<path transform="translate(155,99)" d="m0 0 2 1-1 5-2 1h-8l2 3h5l4-1-3 5-7-1-3-6v-4h8z" fill="#DF97B1"/>
<path transform="translate(633,800)" d="m0 0 2 1-10 8-7 8-5 8-1-3 6-11 5-6 6-4h3z" fill="#F4E6EB"/>
<path transform="translate(90,703)" d="m0 0 2 2h6l1 7-5 2 1-4-4 1v2l-3-1h2v-2l2-2-5 1v2l-6 1 2-2 1-4z" fill="#D398AF"/>
<path transform="translate(376,638)" d="m0 0 1 3-1 7-10 22-1-3 5-18h2l1-5z" fill="#B27C93"/>
<path transform="translate(491,142)" d="m0 0 1 4-4 11-6 8-2-1 4-6h-2l2-6 4-8z" fill="#C9A9B8"/>
<path transform="translate(409,9)" d="m0 0 9 3 16 8 14 10 2 3-5-2-11-8-16-8-9-3z" fill="#925972"/>
<path transform="translate(59,703)" d="m0 0 6 2 2 1h3l2 1v2l-10 4-3 2-1-2h2l-1-2-3 1 2-5-1-3z" fill="#CAACBB"/>
<path transform="translate(268,595)" d="m0 0h2l2 13 4 16-3-1-2 3-3-24z" fill="#E7ABC2"/>
<path transform="translate(457,531)" d="m0 0 8 6 7 4-4 1-3 1-12-6z" fill="#E29DB7"/>
<path transform="translate(363,769)" d="m0 0 3 1 1 6-8 5-3-1 1-6 4-4z" fill="#CAADBC"/>
<path transform="translate(33,598)" d="m0 0 3 3 4 5 7 1-1 4-6 1-5-3v5h-1z" fill="#DDC1CD"/>
<path transform="translate(79,198)" d="m0 0 6 2 9 5 10 9 2 1v2l4 2 2 4-4-1v-2l-3-1-5-5-8-7-7-4-6-4z" fill="#E196B1"/>
<path transform="translate(204,719)" d="m0 0v3l-2 6v9l3 6 3 4-4-2-4-5h-3l-1-7 2-2 4-10z" fill="#E6AAC1"/>
<path transform="translate(327,865)" d="m0 0 1 2-8 16-8 13-3-1 9-15z" fill="#F2E1E7"/>
<path transform="translate(296,847)" d="m0 0h8l6 5-2 1-18-1v-3z" fill="#ECD5DF"/>
<path transform="translate(214,694)" d="m0 0h13l12 6 7 7 1 4h-2l-7-8-5-4-6-2-17-1z" fill="#F0D6E0"/>
<path transform="translate(33,167)" d="m0 0 6 2 9 5 11 9 10 8 4 2-2 2-3-1-5-5-14-11-5-4-10-5z" fill="#C4859F"/>
<path transform="translate(258,100)" d="m0 0 3 1v2h2v3l-9 4h-2l-3-7z" fill="#B58B9D"/>
<path transform="translate(243,76)" d="m0 0 4 2 1 4-5 2 7-1 1 2-10 3-3-5 1-4z" fill="#8F5870"/>
<path transform="translate(172,49)" d="m0 0h2l1 5 3 1v2l7 2 5 8-1 2-5-3-6-5-5-7z" fill="#BB96A9"/>
<path transform="translate(15,804)" d="m0 0h15l1 2-14 1-13 3h-4l1-4z" fill="#FCF5F7"/>
<path transform="translate(50,690)" d="m0 0 2 1 2 5 6 1-1 7h-2v2l-3-1 2-4-2 1v-2l-4 2v-3h-3l2-6-2-1z" fill="#BB94A8"/>
<path transform="translate(357)" d="m0 0 3 1-1 9-4 9-3-4 3-10z" fill="#BE7E99"/>
<path transform="translate(637,792)" d="m0 0v3l-8 6-6 5-7 10-4 4 2-5 5-9 10-9z" fill="#895069"/>
<path transform="translate(386,653)" d="m0 0 1 2-7 20-5 4v-4h2l1-6 5-13z" fill="#CAADBC"/>
<path transform="translate(6,404)" d="m0 0h6v2l-6 1v2l4-1-1 3-3 2h-3l-1 4-2 1v-11z" fill="#DFA9BE"/>
<path transform="translate(359,303)" d="m0 0 4 2 5 10h11v2l-8 3 1 6-5-5-3-7-5-9z" fill="#EFDDE4"/>
<path transform="translate(193,33)" d="m0 0 3 2-3 5v5l5 9 4 5-1 2-3-3v-2h-2l-7-12v-8z" fill="#BB8EA3"/>
<path transform="translate(177,61)" d="m0 0 5 2 4 4 5 1 4 7-1 3-11-9-6-7z" fill="#CAADBC"/>
<path transform="translate(463,521)" d="m0 0v3l-11 15-10 13-5 5 2-5 13-17 9-12z" fill="#915770"/>
<path transform="translate(249,464)" d="m0 0 2 1-1 3h8l-3 3h-5v3l9-2-1 4-7 1-4-5v-6z" fill="#CC849F"/>
<path transform="translate(201,708)" d="m0 0 3 1-2 3v4l-1 2h-2v2h-2l-2 8h-1v-9l4-8z" fill="#C27C98"/>
<path transform="translate(62,593)" d="m0 0h9l-1 2-8 3-12 2-3-2 8-3z" fill="#CAADBC"/>
<path transform="translate(14,397)" d="m0 0 4 1v2h-2v2h-6v2l-7 3h-3v-4l4 1-1-4z" fill="#DD9EB6"/>
<path transform="translate(11,279)" d="m0 0 2 3 4 7h3l5-1v2h-2l2 7 3 3v2l-4-2-10-11-3-6z" fill="#DFCCD5"/>
<path transform="translate(197,236)" d="m0 0 3 2v8l-5 3-6-1v-2l7-1 2-3-2 1h-6l1-3 6-1z" fill="#CB839F"/>
<path transform="translate(115,230)" d="m0 0 6 2 10 6 7 5-1 2-7-1-5-6-9-6z" fill="#E8B2C7"/>
<path transform="translate(289,155)" d="m0 0 6 1-2 2-11 3v3l3 6-1 2-5-7-2-6 8-3z" fill="#D8BAC7"/>
<path transform="translate(310,101)" d="m0 0h2v5l-7 2-2-1 1 3h6l3-1-1 5-4 1-6-4-1-6 9-1z" fill="#DF99B3"/>
<path transform="translate(43,833)" d="m0 0 5 2 6 9 3 5-1 4-3-3-10-15z" fill="#E199B4"/>
<path transform="translate(321,767)" d="m0 0 1 2-10 17-4 4-1-3 10-17h3z" fill="#C195A9"/>
<path transform="translate(35,609)" d="m0 0 4 1 4 2v2l-4 2-1 8v9h-1l-1-7-1-1z" fill="#ECCDD9"/>
<path transform="translate(323,457)" d="m0 0 2 1-10 8-4 5h-2v2l-11 9-4 2 6-7 17-16z" fill="#BF7A96"/>
<path transform="translate(455,755)" d="m0 0 3 1-1 1 1 2-7 3-7 4-4-1v-3l8-4 5 1v-2h2z" fill="#DD9EB7"/>
<path transform="translate(408,601)" d="m0 0v3l-15 29-3 1 2-5 7-14 8-13z" fill="#E3C9D4"/>
<path transform="translate(409,361)" d="m0 0 4 4h1v5l-6 3-5-1v-1l9-2 1-2-8 2-2-3v-3z" fill="#A8798E"/>
<path transform="translate(564,65)" d="m0 0h9l1 2-5 5-3 2-3-1-2-6z" fill="#DC8DA9"/>
<path transform="translate(715,857)" d="m0 0h1v11l-2 9-6 10-7 9-3-1 7-8 6-9 2-5z" fill="#844A63"/>
<path transform="translate(13,802)" d="m0 0h18l3 2-19 1-15 2v-2h5v-2z" fill="#DAC0CC"/>
<path transform="translate(355,105)" d="m0 0 3 1 4 15 2 7h-2l-1 2-6-21z" fill="#F2E3E9"/>
<path transform="translate(311,853)" d="m0 0h2l3 6v9l-2 2-1-8-2-1v-2l-4-1-1-3z" fill="#824861"/>
<path transform="translate(202,759)" d="m0 0 10 3 11 2-4 3h-7l-8-4z" fill="#C07B97"/>
<path transform="translate(29,613)" d="m0 0 2 2 2 10v11l-2 1-2-4z" fill="#E0A1B8"/>
<path transform="translate(331,351)" d="m0 0h11l-1 3-7 1 1 1h6 3l-2 4h-6l-5-5z" fill="#C7829C"/>
<path transform="translate(298,164)" d="m0 0 2 1-1 1 2 2-10 4-5 1-2-4z" fill="#D0AFBE"/>
<path transform="translate(156,103)" d="m0 0 2 2v9l-6 1-2-2 5-2 1-2-8 1-2-4 10-1z" fill="#E4A3BC"/>
<path transform="translate(727,840)" d="m0 0h1v16l-4 16h-2v4h-2l2-10 3-9z" fill="#8B516A"/>
<path transform="translate(410,600)" d="m0 0 1 2-12 23-4 9h-2l1-5 13-25z" fill="#BE7F99"/>
<path transform="translate(486,166)" d="m0 0 1 2-3 9h-2l-2 4h-2l-2 4h-2l-1 3-2 1-2-2 7-6 3-5 4-5z" fill="#E19AB5"/>
<path transform="translate(48,831)" d="m0 0 4 2 5 6 6 11-1 3-3-2-5-10-6-9z" fill="#E29CB7"/>
<path transform="translate(641,781)" d="m0 0 3 1h-2v2l-3 2h5l-4 3-4 1-1-3-10 8-5 5 2-4 5-5 7-6z" fill="#9A6079"/>
<path transform="translate(85,317)" d="m0 0h4v2l2 1-3 1-1 3-5 2-2-1-2 5-1-4 2-4z" fill="#DD95AF"/>
<path transform="translate(488,159)" d="m0 0 1 3-7 12-4 4-3 5-4 2 2-4 8-11 2-2 2-5z" fill="#C092A7"/>
<path transform="translate(568,33)" d="m0 0h15l9 1v1l-23 1-5 1h-7l1-2z" fill="#E7ABC2"/>
<path transform="translate(247,750)" d="m0 0v3l-3 7-7 6-2-1 3-3 1-3-2-1 4-1 2-4z" fill="#E29CB6"/>
<path transform="translate(423,575)" d="m0 0 1 3-7 9-11 18-3 1 2-5 16-24z" fill="#874D66"/>
<path transform="translate(458,520)" d="m0 0v3l-10 13-11 15-3 2 2-5 11-14z" fill="#C3A2B3"/>
<path transform="translate(263,107)" d="m0 0 3 1v4l-8 4h-3l-1-5z" fill="#9C6B81"/>
<path transform="translate(614,859)" d="m0 0 2 3 3 9v5h-3l-4-11 1-5z" fill="#C9ACBB"/>
<path transform="translate(2,731)" d="m0 0h3l1 9-5 4h-1v-12z" fill="#C6849E"/>
<path transform="translate(516,223)" d="m0 0v3l-9 16-9 15-2-2 10-16 8-14z" fill="#C47F9A"/>
<path transform="translate(423,772)" d="m0 0 5 1 2 3-5 5-7-2 1-3h2z" fill="#E09CB6"/>
<path transform="translate(260,657)" d="m0 0 7 1 2 2-1 7-2 2h-6l-1-5 4 1 3 1v-5l-5-1z" fill="#F4E1E8"/>
<path transform="translate(475,171)" d="m0 0 2 1-8 6-10 4-11 1v-1h5v-2l16-5z" fill="#EFDAE3"/>
<path transform="translate(622,883)" d="m0 0 3 1 6 7 5 5h-8l-3-6-3-4z" fill="#D6B9C6"/>
<path transform="translate(619,816)" d="m0 0v3l-5 10-4 15-1 6h-1v-9l4-15 5-8z" fill="#824861"/>
<path transform="translate(358,717)" d="m0 0h1l1 10-3 15-2 1 1-18z" fill="#DBBCC9"/>
<path transform="translate(570,617)" d="m0 0 8 6 7 7v2h2l1-2-1 5-4-1-6-8-7-6z" fill="#E197B1"/>
<path transform="translate(76,321)" d="m0 0h2l1 4v2l1-2h2v3h-2l-2 4-3 3h-2l-1-3 2-7z" fill="#E39FB8"/>
<path transform="translate(401,443)" d="m0 0 2 1-6 5-4 4-11 4-6 3-2-1 22-12z" fill="#CA88A3"/>
<path transform="translate(679,804)" d="m0 0h6l9 4-1 2-5 1-10-4z" fill="#CAADBC"/>
<path transform="translate(306,789)" d="m0 0 3 1-4 7h-2l-1 5-5 8h-2l1-4z" fill="#BF849D"/>
<path transform="translate(207,696)" d="m0 0h20v1l-17 1-10 5-5 3 2-5 6-4z" fill="#E39EB7"/>
<path transform="translate(604,91)" d="m0 0 6 2 18 10 6 4v2l-5-2-13-8-12-7z" fill="#DD8FAA"/>
<path transform="translate(190,31)" d="m0 0 3 1-9 7-8 3h-2l2-4z" fill="#D594AD"/>
<path transform="translate(592,633)" d="m0 0 5 3v3l2 3 2-4v6l-4 1-2-2-4-2 2-1-3-3z" fill="#E09EB7"/>
<path transform="translate(386,623)" d="m0 0 1 3-10 20-2-1 2-7 8-14z" fill="#E5C9D5"/>
<path transform="translate(372,266)" d="m0 0h1l1 12 2 3h5l4-1v-6h1v7l-5 3-6-1-4-5v-10z" fill="#E4A3BC"/>
<path transform="translate(54,857)" d="m0 0h4l2 6h2v7l-2 4h-2l-1 3v-6l-2-1 4 1 1-6-4-1z" fill="#E4A5BD"/>
<path transform="translate(464,287)" d="m0 0h2v2l6-1-2 1 2 5-7-3v3l3-1-1 4-8-5z" fill="#E29BB6"/>
<path transform="translate(186,215)" d="m0 0 3 4 3 10-1 6-3-1-1-11-1-2z" fill="#E7ABC2"/>
<path transform="translate(321,207)" d="m0 0 2 1-1 1 7 1-1 2h-8l-10 2-2 1-1-4 8-2z" fill="#D7B4C3"/>
<path transform="translate(364,124)" d="m0 0h2l4 8 3 9h-3l-5-9-2-7z" fill="#DFC9D4"/>
<path transform="translate(450,33)" d="m0 0 4 2 12 12 6 9-1 2-9-11-7-8-5-4z" fill="#BB859C"/>
<path transform="translate(15,807)" d="m0 0h17l9 3v1l-11-1-17-1z" fill="#D5BDC9"/>
<path transform="translate(691,780)" d="m0 0 6 1 11 8 8 8 2 5-5-5-11-10-11-6z" fill="#844962"/>
<path transform="translate(561,624)" d="m0 0 4 2 11 8 7 5-2 2v-2h-5l-15-14z" fill="#E5A4BC"/>
<path transform="translate(134,290)" d="m0 0h1v9l-7 3h-6l-4 3-2-1 5-5 4-1h7l1-1z" fill="#E5A6BE"/>
<path transform="translate(463,284)" d="m0 0 2 3-5 4-10 10 1-4 6-8 3-1 1-3z" fill="#D98EA9"/>
<path transform="translate(25,242)" d="m0 0 3 1h-2v2l-5 3h-2l-2 5h-2v2h-2l-1 6-1-4 3-7 7-6z" fill="#E0CCD5"/>
<path transform="translate(82,707)" d="m0 0h2l-1 4 3 2-1 2h-2v-2l-10 2 1-7 5 1z" fill="#DDA2B9"/>
<path transform="translate(24,537)" d="m0 0 6 1-1 7-1 11-3 2v-8l1-9h2v-2l-3 1z" fill="#D591AA"/>
<path transform="translate(491,266)" d="m0 0 1 2-6 10-6 7-3 3h-5l4-2v-2l7-6 7-11z" fill="#E7ABC2"/>
<path transform="translate(588,69)" d="m0 0 9 3 20 7-3 1-26-8z" fill="#E39FB8"/>
<path transform="translate(520,46)" d="m0 0 4 1 5 4 1 3-3 1-7-4-1-4z" fill="#FDF7F9"/>
<path transform="translate(615,806)" d="m0 0 1 2-3 9-1 7-4 9-1-4 5-18z" fill="#B5849A"/>
<path transform="translate(495,702)" d="m0 0 2 1-4 4-12 5v-4l9-4z" fill="#D3BAC7"/>
<path transform="translate(557,76)" d="m0 0 11 1-6 3-14-1-5-1v-1z" fill="#DF8DA9"/>
<path transform="translate(648,785)" d="m0 0v3l-16 8-4 3-2-1 10-8 8-4z" fill="#CAACBB"/>
<path transform="translate(0,299)" d="m0 0 2 1 5 11-3 1h-4z" fill="#DFCCD5"/>
<path transform="translate(274,832)" d="m0 0 1 2-5 10-1 3 1 2-3 4-3 2 1-4 3-11z" fill="#DFCCD5"/>
<path transform="translate(579,642)" d="m0 0 2 1-6 6 1 6-3-1-4 2v2l-4 1 5-5v-1l-2-1z" fill="#A4647E"/>
<path transform="translate(60,349)" d="m0 0h8l-4 3-9 6-3 1v-3l5-5z" fill="#C57F9B"/>
<path transform="translate(371,693)" d="m0 0 1 4-7 21-1-4 5-20z" fill="#C49FB1"/>
<path transform="translate(305,190)" d="m0 0h8v3l-9 2h-7l5-4z" fill="#E2C5D1"/>
<path transform="translate(169,607)" d="m0 0 4 1-5 6-3 8-2-4 1-6z" fill="#E7ABC2"/>
<path transform="translate(229,592)" d="m0 0v3l-3 1-3 7-1 7h-1v-16z" fill="#E29CB6"/>
<path transform="translate(91,428)" d="m0 0 3 2v5l2 3-3 3-2-4-1-5-5-2 4-1z" fill="#E5A4BD"/>
<path transform="translate(103,300)" d="m0 0 6 1-6 7-4 2-1-4z" fill="#E5A6BE"/>
<path transform="translate(351,258)" d="m0 0h5l-1 2-16 6-2 1-1-4z" fill="#834962"/>
<path transform="translate(338,232)" d="m0 0h2l-1 3-11 4h-6l1-3z" fill="#844A63"/>
<path transform="translate(327,220)" d="m0 0 5 1-2 5-15 3v-3l14-4z" fill="#D8B7C6"/>
<path transform="translate(250,880)" d="m0 0h2l-6 15-5 1 4-8z" fill="#C095A9"/>
<path transform="translate(202,706)" d="m0 0h2v2l-5 3-4 8-1 9-2 1v-9l4-9z" fill="#ECC6D4"/>
<path transform="translate(67,338)" d="m0 0h4v4h-5v5l-4 1 1-7z" fill="#E2A2B8"/>
<path transform="translate(301,167)" d="m0 0 1 4-4 2-11 3 1-4 12-4z" fill="#D7B5C3"/>
<path transform="translate(351,753)" d="m0 0h1l1 12-3 11h-1v-10z" fill="#CFB2C0"/>
<path transform="translate(241,708)" d="m0 0 3 3 1 6-1 2h-2v-2l-4-1-1-2h2l-1-4 4 2z" fill="#E29BB6"/>
<path transform="translate(389,634)" d="m0 0 3 1-8 17h-2l1-6z" fill="#DBC1CD"/>
<path transform="translate(18,382)" d="m0 0h3v2h7l3-1-1 3-15 2 2-5z" fill="#E8B5C9"/>
<path transform="translate(363,280)" d="m0 0h5v2l-16 4-4-1-1-3 6-1-2 2z" fill="#874D66"/>
<path transform="translate(30,251)" d="m0 0m-1 1m-1 1m-4 1h4l-2 6-1 7-2-3-2 1 1-7z" fill="#F0D6E0"/>
<path transform="translate(340,239)" d="m0 0 3 1-1 2-15 4h-3v-2z" fill="#E2C7D3"/>
<path transform="translate(313,194)" d="m0 0 4 2-4 2-3 1h-9l-1 2 1-4z" fill="#E0C1CE"/>
<path transform="translate(361,130)" d="m0 0 3 3 6 11 8 8h-3l-5-4-6-9z" fill="#9C6980"/>
<path transform="translate(49,834)" d="m0 0 4 4 4 6 3 9-5-5-6-11z" fill="#E9B7CA"/>
<path transform="translate(696,817)" d="m0 0 4 2 7 8 4 8-1 3-8-13z" fill="#BE849D"/>
<path transform="translate(5,396)" d="m0 0h5l2 1v2l-8 2v3l-4-1v-5z" fill="#F0D6E0"/>
<path transform="translate(12,281)" d="m0 0 3 1 3 4 10-1 3 2-10 2-2 2-4-4z" fill="#DBC3CE"/>
<path transform="translate(363,275)" d="m0 0h2l-1 3-6 2-4 1v-2l-8 2-1-2z" fill="#834962"/>
<path transform="translate(446,31)" d="m0 0 4 2v2l4 2 8 8-2 2-15-15z" fill="#C29AAD"/>
<path transform="translate(73,848)" d="m0 0 3 1 2 6v6l-1 2h-2z" fill="#D5BDC9"/>
<path transform="translate(551,641)" d="m0 0 5 2 8 7v3l-3 1-3-2 1-3-7-5z" fill="#E7ABC2"/>
<path transform="translate(556,631)" d="m0 0 4 2 10 8 3 3-5-1-8-6-4-5z" fill="#E4A3BC"/>
<path transform="translate(44,352)" d="m0 0 6 2 1 3h-4v3l-4 1-3-3 3-2z" fill="#E4A3BC"/>
<path transform="translate(427,19)" d="m0 0 5 2 11 7 3 4-4-2-10-6-8-3z" fill="#E5CCD7"/>
<path transform="translate(708,877)" d="m0 0 1 2-6 8-9 8-4 1 5-5 7-6z" fill="#BE8FA4"/>
<path transform="translate(40,673)" d="m0 0 1 4 2 1-1 5h3l-1 3h-7l2-5 1-3-3-2 3-1z" fill="#CAADBC"/>
<path transform="translate(32,372)" d="m0 0h2v2h6l2 2h-3l-1 2v-2l-6 1-7-2v-2h6z" fill="#DA92AD"/>
<path transform="translate(358,266)" d="m0 0h2l-1 3-16 5h-2l-1-3z" fill="#874C66"/>
<path transform="translate(339,237)" d="m0 0h4v2l-16 5-3-1 2-2z" fill="#834962"/>
<path transform="translate(334,228)" d="m0 0 4 1-10 4-8 2-1-3z" fill="#824861"/>
<path transform="translate(253,90)" d="m0 0 3 3-3 2-8 2-1-4z" fill="#A4768B"/>
<path transform="translate(635,786)" d="m0 0 2 1-1 3-6 4-7 6-2-1 5-6z" fill="#EAD7DF"/>
<path transform="translate(448,745)" d="m0 0 2 1-9 6-10 6-2-1 1-2 11-6z" fill="#A36A82"/>
<path transform="translate(511,691)" d="m0 0 3 1-8 6-5 3h-3v-2z" fill="#D4BBC8"/>
<path transform="translate(383,654)" d="m0 0 1 2-6 15-1 4h-2l1-6 5-14z" fill="#B18297"/>
<path transform="translate(308,464)" d="m0 0 3 1-10 9-7 6h-2l1-3 11-9z" fill="#CC839F"/>
<path transform="translate(377,297)" d="m0 0 2 2-7 2-12 2-1-3 15-2z" fill="#824861"/>
<path transform="translate(324,221)" d="m0 0h6l-1 2-10 3-5-1v-2z" fill="#824861"/>
<path transform="translate(544,78)" d="m0 0 18 1 2-1h8v2l-7 1h-11l-10-2z" fill="#E4A3BC"/>
<path transform="translate(345,66)" d="m0 0 3 1 3 19v5l-2-4-4-18z" fill="#955F76"/>
<path transform="translate(362)" d="m0 0h2l7 11 6 4-3 1-7-6-2-5-3 1z" fill="#E6A8BF"/>
<path transform="translate(285,852)" d="m0 0 2 2-3 4v11l3 6-3-1-3-6v-8z" fill="#C5A5B5"/>
<path transform="translate(619,802)" d="m0 0h2l-1 4-6 10-2 1 3-9 2-5z" fill="#DABCC9"/>
<path transform="translate(209,782)" d="m0 0h1v6l-3 3-6-3 3-1v-2z" fill="#E095B0"/>
<path transform="translate(346,712)" d="m0 0h1v7l-4 9-3 1 3-10z" fill="#D48AA5"/>
<path transform="translate(571,651)" d="m0 0v3l-10 9-6 5-3-1 11-9z" fill="#E5BECD"/>
<path transform="translate(31,608)" d="m0 0h1l1 14-2-1-1-7-1 9h-1v-13h2z" fill="#C8849F"/>
<path transform="translate(400,362)" d="m0 0 1 2h2l2 4 8-1-1 3-2 1h-6l-4-5z" fill="#E6D2DB"/>
<path transform="translate(450,293)" d="m0 0 2 1-4 2-1 3-5 1-1 6h-2l1-7z" fill="#E5A7BF"/>
<path transform="translate(55,259)" d="m0 0 2 1v7l-8 4h-5l2-2 7-3z" fill="#E1CDD6"/>
<path transform="translate(355,262)" d="m0 0h3v2l-19 6-1-3z" fill="#824861"/>
<path transform="translate(351,253)" d="m0 0h2v2l-16 6h-3v-2l13-5z" fill="#824861"/>
<path transform="translate(349,249)" d="m0 0h2v2l-15 6h-2l-1 2v-4z" fill="#8C526B"/>
<path transform="translate(492,247)" d="m0 0h1l-1 7-4 3-1-2-3 2 2-5z" fill="#E093AF"/>
<path transform="translate(439,218)" d="m0 0h11l-2 4-6 1-3-3z" fill="#EECEDA"/>
<path transform="translate(345,52)" d="m0 0 3 1 1 4v11l-3-2v-10z" fill="#EFDFE6"/>
<path transform="translate(303,46)" d="m0 0 1 3-4 5-5-1-1-4h5z" fill="#DD94AF"/>
<path transform="translate(274,844)" d="m0 0 1 3-12 19h-1v-5l5-5z" fill="#D5B7C5"/>
<path transform="translate(712,826)" d="m0 0 4 1 3 7v8l-2-3z" fill="#E5C8D4"/>
<path transform="translate(325,757)" d="m0 0h3l-2 5-3 6h-2l-1 2-2-1z" fill="#BD859D"/>
<path transform="translate(332,224)" d="m0 0h4v2l-14 4h-5l1-2z" fill="#8B516A"/>
<path transform="translate(243,211)" d="m0 0 2 1v4l-10 2h-1v-5h8z" fill="#D58FAA"/>
<path transform="translate(200,158)" d="m0 0 1 3-5 5-6-4 1-2 7-1z" fill="#E39EB7"/>
<path transform="translate(433,744)" d="m0 0v3l-14 9v-3l5-4z" fill="#895069"/>
<path transform="translate(421,575)" d="m0 0 1 2-7 11h-2l1-6 5-5z" fill="#F2E4EA"/>
<path transform="translate(46,467)" d="m0 0 2 3-3 4h-6l-2-4 8-1z" fill="#DA8DA9"/>
<path transform="translate(26,386)" d="m0 0 3 1h-2l-1 5-2-1-3 1v-3h-6l1-2z" fill="#DA8DA9"/>
<path transform="translate(35,361)" d="m0 0 6 2 4 3h-2v2h3l-1 2h-4v3l-4-1 4-4v-2l-6-4z" fill="#DF96B0"/>
<path transform="translate(403,349)" d="m0 0 2 4-9 2-1 2v-4l-2-1z" fill="#DEC1CE"/>
<path transform="translate(398,346)" d="m0 0h5v2l-11 4v-2l-3 1 1-4v2z" fill="#E3CAD5"/>
<path transform="translate(391,322)" d="m0 0 2 1v2l-14 5h-2v-3z" fill="#884E67"/>
<path transform="translate(381,306)" d="m0 0 3 1-1 2-10 2-7 1v-2z" fill="#824861"/>
<path transform="translate(376,302)" d="m0 0h5v2l-15 3h-4v-2z" fill="#8B536B"/>
<path transform="translate(369,288)" d="m0 0h4v2l-15 4h-4v-2z" fill="#854B64"/>
<path transform="translate(145,249)" d="m0 0h3l-1 6-6 4-1-2z" fill="#E3B5C7"/>
<path transform="translate(47,181)" d="m0 0 5 2 10 8 3 4h-3l-5-5-9-7z" fill="#C5849E"/>
<path transform="translate(35,150)" d="m0 0 5 2 11 8h5l-1 3-5-1-15-11z" fill="#B48097"/>
<path transform="translate(491,142)" d="m0 0 1 4-4 11-6 8-2-1 6-9z" fill="#884D67"/>
<path transform="translate(485,147)" d="m0 0 1 4-3 5h-2l-1 3h-2l1-5z" fill="#FAF2F5"/>
<path transform="translate(506,51)" d="m0 0 6 4 2 4 9 9h-3l-11-11-3-4z" fill="#E5A5BE"/>
<path transform="translate(177,36)" d="m0 0 2 1-11 6-4 5-1-6z" fill="#E7ACC2"/>
<path transform="translate(296,847)" d="m0 0h8l2 4h-9l-3-2z" fill="#F9EEF2"/>
<path transform="translate(204,749)" d="m0 0 4 3-2 5-5-2-2-3 5-1z" fill="#E7ABC2"/>
<path transform="translate(479,718)" d="m0 0v3l-12 7-6 2 5-5z" fill="#89516A"/>
<path transform="translate(204,717)" d="m0 0v3l-4 7-2 5-3 4 1-7 5-9z" fill="#E19AB5"/>
<path transform="translate(220,707)" d="m0 0h9l7 4v3l-2-2-6-2-9-1z" fill="#E197B2"/>
<path transform="translate(540,675)" d="m0 0v3l-12 10-5 3 2-4 14-11z" fill="#8A4E68"/>
<path transform="translate(542,678)" d="m0 0v3l-14 13-2-1 5-5z" fill="#92556F"/>
<path transform="translate(221,616)" d="m0 0 2 1v8l-6-1-1-3z" fill="#E29BB6"/>
<path transform="translate(575,611)" d="m0 0 5 2 8 7v2l-3-1v-2l-3 1-2-4-5-3z" fill="#E197B1"/>
<path transform="translate(385,315)" d="m0 0h3v2l-13 4h-4l1-3z" fill="#8F5870"/>
<path transform="translate(294,163)" d="m0 0h5l-1 2-12 4h-2l-1-3z" fill="#824861"/>
<path transform="translate(198,151)" d="m0 0 3 3-3 3-9 1-1-5 2 1h7z" fill="#DC93AE"/>
<path transform="translate(279,134)" d="m0 0 3 1v2l-13 4-1-3z" fill="#864C65"/>
<path transform="translate(230,57)" d="m0 0 4 4 7 11 2 4-3-1-10-16z" fill="#A9758C"/>
<path transform="translate(596,10)" d="m0 0 5 1 7 5-1 2-4-1-6-4z" fill="#E195B0"/>
<path transform="translate(285,823)" d="m0 0 2 4-3 4-4 5-4 4 2-5z" fill="#C092A7"/>
<path transform="translate(399,776)" d="m0 0h3l-2 4-8 10-2-1z" fill="#E6CED8"/>
<path transform="translate(260,654)" d="m0 0h6l1 3-7 1-2 3h-2l1-5z" fill="#854A63"/>
<path transform="translate(163,610)" d="m0 0h2l-1 8-2 1-1-2-3-2-1-3z" fill="#E29BB6"/>
<path transform="translate(372,427)" d="m0 0h3l1 4-6 6h-2l3-9z" fill="#DD92AD"/>
<path transform="translate(123,290)" d="m0 0h10l-3 5-5-1v-2h-2z" fill="#F0CFDB"/>
<path transform="translate(365,286)" d="m0 0h2v2l2 1-13 3v-2l-2-1z" fill="#DEC3CF"/>
<path transform="translate(379,271)" d="m0 0h5l-1 4-7 1-1-4z" fill="#F0D6E0"/>
<path transform="translate(326,253)" d="m0 0h2l8 16-1 2-7-11z" fill="#CAADBC"/>
<path transform="translate(303,181)" d="m0 0 4 1 1 2-11 2-4-1 6-3z" fill="#DEC0CD"/>
<path transform="translate(388,163)" d="m0 0 8 6 6 4v2l-5-2-8-6z" fill="#E098B2"/>
<path transform="translate(288,153)" d="m0 0h5v2l-11 3h-4v-3z" fill="#824861"/>
<path transform="translate(493,138)" d="m0 0 3 3-1 8h-4v-8z" fill="#D1B6C3"/>
<path transform="translate(357,104)" d="m0 0h2l2 9 3 8-1 4-4-10z" fill="#9D6A81"/>
<path transform="translate(155,99)" d="m0 0 2 1-1 5-7 1-3-1v-2l8-2z" fill="#D088A3"/>
<path transform="translate(286,875)" d="m0 0 8 4 9 1v1l-6 1-2 1-6-3-3-3z" fill="#C9ABBA"/>
<path transform="translate(619,810)" d="m0 0 2 3-8 12-1-3 6-11z" fill="#E3C7D3"/>
<path transform="translate(514,693)" d="m0 0 2 1-12 9v-3-2z" fill="#F7EBEF"/>
<path transform="translate(40,671)" d="m0 0h2l1 4 2 2-1 4 4-1-2 5-1-2h-3v-5z" fill="#BB95A8"/>
<path transform="translate(585,639)" d="m0 0 1 4v4l4 5-1 3-5-5-1-5 1-5z" fill="#DF96B0"/>
<path transform="translate(392,329)" d="m0 0 3 1-1 3-7 2-4-2z" fill="#E4C9D4"/>
<path transform="translate(346,252)" d="m0 0 5 1-4 2-11 4h-2v-2z" fill="#E1C8D3"/>
<path transform="translate(346,245)" d="m0 0h2l-1 3-14 6h-3v-2l15-6z" fill="#834962"/>
<path transform="translate(320,200)" d="m0 0 1 2-13 5-4-1v-2z" fill="#824861"/>
<path transform="translate(624,882)" d="m0 0 5 4 10 10-4-1-10-9z" fill="#A9748C"/>
<path transform="translate(617,862)" d="m0 0 2 1 5 13h-3l-5-11z" fill="#EBD2DC"/>
<path transform="translate(719,837)" d="m0 0 2 4v12l-2-1-2-9 1-4z" fill="#C8A8B8"/>
<path transform="translate(360,825)" d="m0 0h2l-2 4-7 8-3 2-1-3 3-1z" fill="#D4B7C5"/>
<path transform="translate(201,774)" d="m0 0 5 1 1 3-2 1h-7l2-4z" fill="#F7E9EE"/>
<path transform="translate(359,771)" d="m0 0 2 1v8l-4 1-1-5z" fill="#E09CB6"/>
<path transform="translate(255,726)" d="m0 0h1v9l-2 9h-3z" fill="#E7ABC2"/>
<path transform="translate(350,691)" d="m0 0h2l-3 10-2 5-2-1 1-6z" fill="#DFCCD5"/>
<path transform="translate(522,689)" d="m0 0v3l-9 7-5 2v-2z" fill="#8E546D"/>
<path transform="translate(381,662)" d="m0 0 1 2-2 11-5 4v-4h2l1-6z" fill="#D3B8C6"/>
<path transform="translate(397,608)" d="m0 0 1 2 2 1-7 12-1-4z" fill="#E1C7D2"/>
<path transform="translate(285,504)" d="m0 0 5 5 10 11h-3l-9-9-3-5z" fill="#E5A7BF"/>
<path transform="translate(386,319)" d="m0 0 5 1v1l-14 4h-3v-2z" fill="#874D66"/>
<path transform="translate(366,301)" d="m0 0h9l-1 2-7 2-7-1 3-2z" fill="#E8D3DC"/>
<path transform="translate(371,292)" d="m0 0 4 1-16 6-3-1v-2z" fill="#854A64"/>
<path transform="translate(115,230)" d="m0 0 6 2 8 5v2l-4-1-9-6z" fill="#E7AEC4"/>
<path transform="translate(320,211)" d="m0 0 4 1-12 5-3-1 1-3z" fill="#854B64"/>
<path transform="translate(319,206)" d="m0 0h5l-3 2-8 3h-6l-1-2z" fill="#854B64"/>
<path transform="translate(313,192)" d="m0 0 4 1-4 2-13 3v-3z" fill="#8C546C"/>
<path transform="translate(308,188)" d="m0 0h6l-2 2-15 3-1-3z" fill="#824861"/>
<path transform="translate(378,153)" d="m0 0 9 3-2 1 3 4-1 4-6-8v-2l-3-1z" fill="#B892A4"/>
<path transform="translate(327,865)" d="m0 0 1 2-7 14-2-1 2-5z" fill="#F1DCE4"/>
<path transform="translate(712,830)" d="m0 0 3 1 2 5 1 14h-1l-4-16z" fill="#BF809A"/>
<path transform="translate(718,804)" d="m0 0 3 3 3 7-1 3v-2h-2l-5-10z" fill="#D0B1C0"/>
<path transform="translate(196,737)" d="m0 0 1 3h2l-1 4h-2v2l-4-2 1-6 3 1z" fill="#DE8EA9"/>
<path transform="translate(94,707)" d="m0 0 5 1-1 5-4 1 1-4-4 1v2l-3-1h2v-2z" fill="#C291A7"/>
<path transform="translate(53,700)" d="m0 0h3l1 3-2 2 1 2-6 4-2-1 4-5 1-2-2-1z" fill="#C9ACBB"/>
<path transform="translate(72,616)" d="m0 0 5 1 16 4v1h-7l-14-4z" fill="#E3A1BA"/>
<path transform="translate(384,309)" d="m0 0 2 4-13 3h-4v-2l15-3z" fill="#824861"/>
<path transform="translate(329,227)" d="m0 0 5 1-3 2-12 2-1-2z" fill="#D2B1C0"/>
<path transform="translate(443,211)" d="m0 0 5 1 1 3-8 1-1-2z" fill="#F7EAEF"/>
<path transform="translate(308,183)" d="m0 0h3v2l-12 3-5-1 3-2z" fill="#834962"/>
<path transform="translate(276,130)" d="m0 0h3v2l-9 4h-4l1-3z" fill="#874C65"/>
<path transform="translate(154,105)" d="m0 0h2l-2 4-1 1h-5l-2-4z" fill="#EFD3DE"/>
<path transform="translate(310,851)" d="m0 0 2 2-5 2 1 4-5-1v-2l-2-1 2-2h7z" fill="#BE7E98"/>
<path transform="translate(690,781)" d="m0 0 5 1 5 3v2h-5l-6-4z" fill="#E4CCD6"/>
<path transform="translate(314,776)" d="m0 0 1 2-4 9-3 3-1-3 6-10z" fill="#BE8EA4"/>
<path transform="translate(250,710)" d="m0 0 2 2 3 9v11h-1l-2-12-3-8z" fill="#E39EB8"/>
<path transform="translate(249,464)" d="m0 0 2 1-1 3h8l-3 3-7-1v-5z" fill="#955771"/>
<path transform="translate(61,343)" d="m0 0h1v5l3-1v2l-9 2 2-7z" fill="#DD8FAA"/>
<path transform="translate(397,335)" d="m0 0h2l1 4-7 1-7 3v-3z" fill="#8B516A"/>
<path transform="translate(356,304)" d="m0 0h2l4 7 4 4 1 5-5-5-6-9z" fill="#C19CAE"/>
<path transform="translate(349,261)" d="m0 0 2 1 1 2-10 3-4-1 8-4z" fill="#DEC1CE"/>
<path transform="translate(301,177)" d="m0 0 3 1 1 2-9 2h-4v-2z" fill="#DFC2CE"/>
<path transform="translate(293,157)" d="m0 0h2l-1 3-10 3-4-1 2-2z" fill="#834962"/>
<path transform="translate(287,148)" d="m0 0h2l-1 3-8 2h-5v-2z" fill="#824861"/>
<path transform="translate(267,118)" d="m0 0h5v2l-9 3h-4v-2z" fill="#824861"/>
<path transform="translate(471,59)" d="m0 0h3l3 10-2 1-6-9z" fill="#D0B7C4"/>
<path transform="translate(326,853)" d="m0 0h2l2 10-2 3-2-2z" fill="#D9C1CC"/>
<path transform="translate(306,847)" d="m0 0 6 2 4 5v2l-3-1-3-3-4-3z" fill="#D3BAC6"/>
<path transform="translate(581,841)" d="m0 0 2 4 1 5v9l-2-3-2-12z" fill="#C3A2B2"/>
<path transform="translate(632,810)" d="m0 0h5l-5 5-6 2 2-4z" fill="#D0ABBB"/>
<path transform="translate(33,634)" d="m0 0h1v12h-2l-2-6v-5l2 1z" fill="#D08CA5"/>
<path transform="translate(439,547)" d="m0 0h3l-1 4-7 9v-3z" fill="#F5E5EB"/>
<path transform="translate(380,318)" d="m0 0h8l-2 2-11 3v-3z" fill="#F0E2E8"/>
<path transform="translate(126,283)" d="m0 0 5 1 1 3-2 1h-6l1-4z" fill="#F5E3EA"/>
<path transform="translate(128,279)" d="m0 0h2v4l-5 2-1 3 4 1h-7l2-5z" fill="#D68CA7"/>
<path transform="translate(502,236)" d="m0 0h2l-1 4-3 4v-2h-5l4-4z" fill="#E7ABC2"/>
<path transform="translate(245,217)" d="m0 0 1 4-2 2h-6l-3-3 1-2 1 1h7z" fill="#DF99B3"/>
<path transform="translate(317,196)" d="m0 0h2v2l-14 4h-3l1-3z" fill="#824861"/>
<path transform="translate(218,89)" d="m0 0 3 1 6 10v2l-3-1-6-10z" fill="#BB8EA3"/>
<path transform="translate(200,60)" d="m0 0 3 1 6 10-1 4-8-13z" fill="#BC8BA1"/>
<path transform="translate(708,888)" d="m0 0h2l-2 4-3 4-4-1 4-5z" fill="#E4CBD6"/>
<path transform="translate(313,874)" d="m0 0v3l-3 3-5 2h-9v-1l10-2z" fill="#D4BBC8"/>
<path transform="translate(719,866)" d="m0 0h1l1 8-1 2h-4l-2 1 2-5z" fill="#CCADBC"/>
<path transform="translate(713,806)" d="m0 0 5 5 3 7-1 3-4-7v-4l-3-1z" fill="#C198AB"/>
<path transform="translate(641,781)" d="m0 0 3 1h-2v2l-3 2h5l-4 3-4 1v-3l2-4z" fill="#AF7F94"/>
<path transform="translate(203,781)" d="m0 0h5l-2 4-5 1-2-4z" fill="#F7E8EE"/>
<path transform="translate(370,653)" d="m0 0h1l-1 9-4 8-1-3z" fill="#CB839F"/>
<path transform="translate(399,620)" d="m0 0 1 3-5 11h-2l1-5z" fill="#BE8BA2"/>
<path transform="translate(425,568)" d="m0 0 2 1-2 4-3 3-4 2 2-4 3-5z" fill="#ECD6DF"/>
<path transform="translate(463,521)" d="m0 0v3l-9 12-2-1 9-12z" fill="#895169"/>
<path transform="translate(3,390)" d="m0 0 7 2v2l-7 1-3 1v-4z" fill="#F0D6E0"/>
<path transform="translate(392,335)" d="m0 0h5l-1 2-11 4v-2l-2-1z" fill="#E8D5DE"/>
<path transform="translate(386,312)" d="m0 0 2 3-9 2-1-1h-5l4-2z" fill="#DFC5D1"/>
<path transform="translate(345,289)" d="m0 0 3 1 5 7v2l3 1-1 4-10-14z" fill="#BD96A9"/>
<path transform="translate(11,279)" d="m0 0 2 3 4 7h3l1 4-4-1-4-5-2-4z" fill="#E6D0D9"/>
<path transform="translate(336,275)" d="m0 0h2l8 12v2h-2l-8-12z" fill="#BC8CA2"/>
<path transform="translate(35,247)" d="m0 0h6l2 2-11 2-4 3-4-1z" fill="#DFCCD5"/>
<path transform="translate(79,198)" d="m0 0 6 2 9 5-1 3-5-4-8-4z" fill="#DF9EB7"/>
<path transform="translate(284,144)" d="m0 0h3l-1 3-13 2v-2z" fill="#895069"/>
<path transform="translate(280,140)" d="m0 0h5l-1 2-9 3-5-1 3-2z" fill="#824861"/>
<path transform="translate(270,123)" d="m0 0h4v2l-9 3-4-1 1-2z" fill="#824861"/>
<path transform="translate(422,29)" d="m0 0h9l8 4-2 1-15-4z" fill="#E299B3"/>
<path transform="translate(411,23)" d="m0 0 9 2 8 3v1h-6l-7-3-4-1z" fill="#DF8DA9"/>
<path transform="translate(360)" d="m0 0h2v9l-4 6-1-3 2-5v-6z" fill="#E195B0"/>
<path transform="translate(436,838)" d="m0 0 4 2v3h-8l2-4z" fill="#F6E5EC"/>
<path transform="translate(336,824)" d="m0 0h1l-1 8-2 7-3-1z" fill="#C7A5B6"/>
<path transform="translate(298,795)" d="m0 0h2l-2 4-4 6h-2v2l-2-1z" fill="#DFCCD5"/>
<path transform="translate(566,653)" d="m0 0 2 1-13 12-2-2 11-9z" fill="#92556F"/>
<path transform="translate(391,620)" d="m0 0h1v5l-7 12-1-2z" fill="#CEADBD"/>
<path transform="translate(438,558)" d="m0 0h2v2h2l6 7v2l-4-2-6-7z" fill="#E39EB8"/>
<path transform="translate(10,387)" d="m0 0h3l2 5h-3v-2h-2v2l-5-1-1-2z" fill="#E39EB8"/>
<path transform="translate(366,306)" d="m0 0h7l-1 3-7 2-2-4z" fill="#DABFCB"/>
<path transform="translate(368,290)" d="m0 0 7 1-4 2-8 2v-2l-2-1z" fill="#DEC4D0"/>
<path transform="translate(277,196)" d="m0 0 4 2 6 7v2l-4-2-6-8z" fill="#CEB0BE"/>
<path transform="translate(489,152)" d="m0 0 4 2-3 9-3 3 2-10z" fill="#C9ACBB"/>
<path transform="translate(488,100)" d="m0 0h1l1 5v12l-2-4-1-10z" fill="#DAC1CD"/>
<path transform="translate(349,63)" d="m0 0h1l1 11-1 1v6h-1l-1-5v-8z" fill="#E0C8D3"/>
<path transform="translate(562,34)" d="m0 0h11l-4 2-5 1h-7l1-2z" fill="#E39FB9"/>
<path transform="translate(69,858)" d="m0 0h5l-1 6-1 2-2-1-1-4-2-2z" fill="#DFCCD5"/>
<path transform="translate(432,837)" d="m0 0h6l-1 2-4 2-1 2h6v1h-7l-1-5z" fill="#E195B0"/>
<path transform="translate(632,805)" d="m0 0 3 1-9 8h-2l2-4z" fill="#E7D3DC"/>
<path transform="translate(492,710)" d="m0 0v3l-12 7v-3z" fill="#8E576F"/>
<path transform="translate(219,705)" d="m0 0h9l7 3 2 4-8-4-10-2z" fill="#BF7A96"/>
<path transform="translate(245,606)" d="m0 0 2 4 2 8v6l-3-4z" fill="#D69AB1"/>
<path transform="translate(220,558)" d="m0 0 1 2-1 11-2 1-1-13z" fill="#E7ABC2"/>
<path transform="translate(457,531)" d="m0 0 3 3-1 4-6-1z" fill="#DC90AB"/>
<path transform="translate(13,387)" d="m0 0 8 2v3h-5l-1 2-2-2v-2z" fill="#E8B1C6"/>
<path transform="translate(359,303)" d="m0 0 4 2 2 4 2 3v3l-3-1-5-9z" fill="#F7EBF0"/>
<path transform="translate(95,308)" d="m0 0 2 1-5 5v5h-3v-2l-2-1z" fill="#E19DB6"/>
<path transform="translate(373,269)" d="m0 0h10v2l-8 1-1 2z" fill="#D087A3"/>
<path transform="translate(274,126)" d="m0 0h3v2l-11 4h-2v-2z" fill="#884E67"/>
<path transform="translate(253,876)" d="m0 0h3l-2 5-5 8-1-2 3-5 1-5z" fill="#C7A3B4"/>
<path transform="translate(432,847)" d="m0 0h8v3l-6 1z" fill="#F6E5EC"/>
<path transform="translate(427,757)" d="m0 0 3 1-4 4-3 2-3-1 3-4z" fill="#C08CA2"/>
<path transform="translate(341,728)" d="m0 0 1 3-4 8-3 1 2-6z" fill="#C6809C"/>
<path transform="translate(224,702)" d="m0 0 9 2 1 3-6-1-6-2z" fill="#E198B4"/>
<path transform="translate(367,691)" d="m0 0h1l-1 9-1 2h-2l1-8z" fill="#E4CCD6"/>
<path transform="translate(257,469)" d="m0 0h2l-2 4-1 1h-6v-3z" fill="#F0D5DF"/>
<path transform="translate(6,404)" d="m0 0h6v2l-9 3h-3v-2z" fill="#EECFDB"/>
<path transform="translate(15,378)" d="m0 0 9 2v2l3 1-6 1v-2l-4-1-2-1z" fill="#E29BB6"/>
<path transform="translate(83,321)" d="m0 0 4 3-5 2-2-1-2 5-1-4z" fill="#D689A5"/>
<path transform="translate(359,273)" d="m0 0 3 1-3 3h-8l3-3z" fill="#E5C9D5"/>
<path transform="translate(345,248)" d="m0 0 4 2-11 4-3-1z" fill="#DDC1CE"/>
<path transform="translate(340,243)" d="m0 0 8 1v1l-10 2h-6l2-2z" fill="#D3B6C3"/>
<path transform="translate(307,185)" d="m0 0 4 1-3 3h-7l1-3z" fill="#E3C7D3"/>
<path transform="translate(299,167)" d="m0 0 2 1-10 4-5 1 1-3z" fill="#824861"/>
<path transform="translate(276,138)" d="m0 0 3 1-2 3-7 1v-3z" fill="#DABBC9"/>
<path transform="translate(267,113)" d="m0 0 2 1v2l-9 3h-3v-2z" fill="#824861"/>
<path transform="translate(250,86)" d="m0 0 3 1v2l-7 2h-4v-2z" fill="#844962"/>
<path transform="translate(301,40)" d="m0 0 2 1v3l-2 1h-6l-1-3h7z" fill="#CE84A0"/>
<path transform="translate(718,800)" d="m0 0 4 4 2 5-1 4-5-9z" fill="#AB778E"/>
<path transform="translate(691,780)" d="m0 0 6 1 9 6-2 2-9-6z" fill="#9B617A"/>
<path transform="translate(392,764)" d="m0 0 4 2 1 5h-3l-3-3z" fill="#BE7B96"/>
<path transform="translate(235,759)" d="m0 0h4l-1 4-4 2 1-4-6 1 3-2z" fill="#E092AD"/>
<path transform="translate(495,700)" d="m0 0h8l-3 3-5 2v-2l-3 1 1-3z" fill="#E1C9D4"/>
<path transform="translate(355,687)" d="m0 0 1 4-3 10-3 2 3-10z" fill="#CB85A0"/>
<path transform="translate(70,670)" d="m0 0 6 3-10 5 2-4z" fill="#BE7894"/>
<path transform="translate(281,622)" d="m0 0 3 3-1 3-3 1-1-3-2-1z" fill="#E7ACC3"/>
<path transform="translate(43,464)" d="m0 0h2v3l-2 1h-6l-1-3z" fill="#EECBD8"/>
<path transform="translate(260,104)" d="m0 0 3 1-3 2-6 3h-2l-1-3z" fill="#844963"/>
<path transform="translate(354,93)" d="m0 0h1l2 12-3-1-1-9z" fill="#E7D1DB"/>
<path transform="translate(367,5)" d="m0 0 8 6 2 4-5-2-5-6z" fill="#E095B1"/>
</svg>
