<?xml version="1.0" encoding="UTF-8" standalone="no"?>
<!DOCTYPE svg PUBLIC "-//W3C//DTD SVG 1.1//EN"
 "http://www.w3.org/Graphics/SVG/1.1/DTD/svg11.dtd">
<!-- Generated by graphviz version 2.47.0 (20210316.0004)
 -->
<!-- Title: dependencies Pages: 1 -->
<svg width="856pt" height="284pt"
 viewBox="0.00 0.00 856.00 284.00" xmlns="http://www.w3.org/2000/svg" xmlns:xlink="http://www.w3.org/1999/xlink">
<g id="graph0" class="graph" transform="scale(1 1) rotate(0) translate(4 280)">
<title>dependencies</title>
<polygon fill="white" stroke="transparent" points="-4,4 -4,-280 852,-280 852,4 -4,4"/>
<text text-anchor="start" x="403.01" y="-42.4" font-family="Times-12" font-weight="bold" font-size="14.00">Legend</text>
<polygon fill="#ffffb3" stroke="transparent" points="190,-10 190,-30 210,-30 210,-10 190,-10"/>
<text text-anchor="start" x="213.63" y="-15.4" font-family="Times-12" font-size="14.00"> &#160;Declarations</text>
<polygon fill="#8dd3c7" stroke="transparent" points="303,-10 303,-30 323,-30 323,-10 303,-10"/>
<text text-anchor="start" x="326.73" y="-15.4" font-family="Times-12" font-size="14.00"> &#160;Module</text>
<polygon fill="#80b1d3" stroke="transparent" points="389,-10 389,-30 409,-30 409,-10 389,-10"/>
<text text-anchor="start" x="412.78" y="-15.4" font-family="Times-12" font-size="14.00"> &#160;Bootstrap</text>
<polygon fill="#fdb462" stroke="transparent" points="486,-10 486,-30 506,-30 506,-10 486,-10"/>
<text text-anchor="start" x="509.67" y="-15.4" font-family="Times-12" font-size="14.00"> &#160;Providers</text>
<polygon fill="#fb8072" stroke="transparent" points="582,-10 582,-30 602,-30 602,-10 582,-10"/>
<text text-anchor="start" x="605.73" y="-15.4" font-family="Times-12" font-size="14.00"> &#160;Exports</text>
<g id="clust1" class="cluster">
<title>cluster_AppModule</title>
<polygon fill="none" stroke="black" stroke-dasharray="1,5" points="8,-70 8,-268 840,-268 840,-70 8,-70"/>
</g>
<g id="clust2" class="cluster">
<title>cluster_AppModule_declarations</title>
<polygon fill="none" stroke="black" points="168,-78 168,-130 832,-130 832,-78 168,-78"/>
</g>
<g id="clust8" class="cluster">
<title>cluster_AppModule_imports</title>
<polygon fill="none" stroke="black" points="16,-78 16,-130 160,-130 160,-78 16,-78"/>
</g>
<g id="clust10" class="cluster">
<title>cluster_AppModule_bootstrap</title>
<polygon fill="none" stroke="black" points="344,-208 344,-260 468,-260 468,-208 344,-208"/>
</g>
<!-- AppComponent -->
<g id="node1" class="node">
<title>AppComponent</title>
<polygon fill="#ffffb3" stroke="black" points="823.94,-122 718.06,-122 718.06,-86 823.94,-86 823.94,-122"/>
<text text-anchor="middle" x="771" y="-99.8" font-family="Times,serif" font-size="14.00">AppComponent</text>
</g>
<!-- AppModule -->
<g id="node6" class="node">
<title>AppModule</title>
<polygon fill="#8dd3c7" stroke="black" points="447.66,-187 444.66,-191 423.66,-191 420.66,-187 364.34,-187 364.34,-151 447.66,-151 447.66,-187"/>
<text text-anchor="middle" x="406" y="-164.8" font-family="Times,serif" font-size="14.00">AppModule</text>
</g>
<!-- AppComponent&#45;&gt;AppModule -->
<g id="edge1" class="edge">
<title>AppComponent&#45;&gt;AppModule</title>
<path fill="none" stroke="black" d="M771,-122.28C771,-143.32 771,-175 771,-175 771,-175 457.87,-175 457.87,-175"/>
<polygon fill="black" stroke="black" points="457.87,-171.5 447.87,-175 457.87,-178.5 457.87,-171.5"/>
</g>
<!-- CarouselComponent -->
<g id="node2" class="node">
<title>CarouselComponent</title>
<polygon fill="#ffffb3" stroke="black" points="700.59,-122 569.41,-122 569.41,-86 700.59,-86 700.59,-122"/>
<text text-anchor="middle" x="635" y="-99.8" font-family="Times,serif" font-size="14.00">CarouselComponent</text>
</g>
<!-- CarouselComponent&#45;&gt;AppModule -->
<g id="edge2" class="edge">
<title>CarouselComponent&#45;&gt;AppModule</title>
<path fill="none" stroke="black" d="M635,-122.02C635,-139.37 635,-163 635,-163 635,-163 457.74,-163 457.74,-163"/>
<polygon fill="black" stroke="black" points="457.74,-159.5 447.74,-163 457.74,-166.5 457.74,-159.5"/>
</g>
<!-- ModalServiceComponent -->
<g id="node3" class="node">
<title>ModalServiceComponent</title>
<polygon fill="#ffffb3" stroke="black" points="551.86,-122 392.14,-122 392.14,-86 551.86,-86 551.86,-122"/>
<text text-anchor="middle" x="472" y="-99.8" font-family="Times,serif" font-size="14.00">ModalServiceComponent</text>
</g>
<!-- ModalServiceComponent&#45;&gt;AppModule -->
<g id="edge3" class="edge">
<title>ModalServiceComponent&#45;&gt;AppModule</title>
<path fill="none" stroke="black" d="M419.95,-122.11C419.95,-122.11 419.95,-140.99 419.95,-140.99"/>
<polygon fill="black" stroke="black" points="416.45,-140.99 419.95,-150.99 423.45,-140.99 416.45,-140.99"/>
</g>
<!-- SafePipe -->
<g id="node4" class="node">
<title>SafePipe</title>
<polygon fill="#ffffb3" stroke="black" points="373.76,-122 308.24,-122 308.24,-86 373.76,-86 373.76,-122"/>
<text text-anchor="middle" x="341" y="-99.8" font-family="Times,serif" font-size="14.00">SafePipe</text>
</g>
<!-- SafePipe&#45;&gt;AppModule -->
<g id="edge4" class="edge">
<title>SafePipe&#45;&gt;AppModule</title>
<path fill="none" stroke="black" d="M369.03,-122.11C369.03,-122.11 369.03,-140.99 369.03,-140.99"/>
<polygon fill="black" stroke="black" points="365.53,-140.99 369.03,-150.99 372.53,-140.99 365.53,-140.99"/>
</g>
<!-- ScrollComponent -->
<g id="node5" class="node">
<title>ScrollComponent</title>
<polygon fill="#ffffb3" stroke="black" points="290.27,-122 175.73,-122 175.73,-86 290.27,-86 290.27,-122"/>
<text text-anchor="middle" x="233" y="-99.8" font-family="Times,serif" font-size="14.00">ScrollComponent</text>
</g>
<!-- ScrollComponent&#45;&gt;AppModule -->
<g id="edge5" class="edge">
<title>ScrollComponent&#45;&gt;AppModule</title>
<path fill="none" stroke="black" d="M233,-122.02C233,-139.37 233,-163 233,-163 233,-163 354.12,-163 354.12,-163"/>
<polygon fill="black" stroke="black" points="354.12,-166.5 364.12,-163 354.12,-159.5 354.12,-166.5"/>
</g>
<!-- AppComponent  -->
<g id="node8" class="node">
<title>AppComponent </title>
<polygon fill="#80b1d3" stroke="black" points="460.44,-252 351.56,-252 351.56,-216 460.44,-216 460.44,-252"/>
<text text-anchor="middle" x="406" y="-229.8" font-family="Times,serif" font-size="14.00">AppComponent </text>
</g>
<!-- AppModule&#45;&gt;AppComponent  -->
<g id="edge7" class="edge">
<title>AppModule&#45;&gt;AppComponent </title>
<path fill="none" stroke="black" stroke-dasharray="1,5" d="M406,-187.11C406,-187.11 406,-205.99 406,-205.99"/>
<polygon fill="black" stroke="black" points="402.5,-205.99 406,-215.99 409.5,-205.99 402.5,-205.99"/>
</g>
<!-- AppRoutingModule -->
<g id="node7" class="node">
<title>AppRoutingModule</title>
<polygon fill="#8dd3c7" stroke="black" points="152.27,-122 149.27,-126 128.27,-126 125.27,-122 23.73,-122 23.73,-86 152.27,-86 152.27,-122"/>
<text text-anchor="middle" x="88" y="-99.8" font-family="Times,serif" font-size="14.00">AppRoutingModule</text>
</g>
<!-- AppRoutingModule&#45;&gt;AppModule -->
<g id="edge6" class="edge">
<title>AppRoutingModule&#45;&gt;AppModule</title>
<path fill="none" stroke="black" d="M88,-122.28C88,-143.32 88,-175 88,-175 88,-175 354.1,-175 354.1,-175"/>
<polygon fill="black" stroke="black" points="354.1,-178.5 364.1,-175 354.1,-171.5 354.1,-178.5"/>
</g>
</g>
</svg>
